<svg width="256" height="184" viewBox="0 0 256 184" fill="none" xmlns="http://www.w3.org/2000/svg">
<path d="M32 131V0H40L90 51L140.5 0H150V31.5L90 89.5L61.5 62V131H32Z" fill="#5FAD56"/>
<path d="M91 131V99.5L191.5 0H231.5L151 81L201.5 131H161.5L131 101.5L119.5 112V131H91Z" fill="#F2C14E"/>
<mask id="path-3-outside-1_23_10" maskUnits="userSpaceOnUse" x="2" y="145" width="250" height="32" fill="black">
<rect fill="white" x="2" y="145" width="250" height="32"/>
<path d="M3.34659 175V147.364H20.0256V150.332H6.69318V159.67H19.1619V162.639H6.69318V172.031H20.2415V175H3.34659ZM47.9723 147.364V175H44.7337L29.674 153.301H29.4041V175H26.0575V147.364H29.2962L44.4098 169.116H44.6797V147.364H47.9723ZM53.1575 150.332V147.364H73.8848V150.332H65.1944V175H61.8478V150.332H53.1575ZM79.0497 175V147.364H95.7287V150.332H82.3963V159.67H94.8651V162.639H82.3963V172.031H95.9446V175H79.0497ZM101.761 175V147.364H111.099C113.258 147.364 115.03 147.732 116.415 148.47C117.801 149.199 118.826 150.202 119.492 151.479C120.158 152.757 120.491 154.21 120.491 155.838C120.491 157.466 120.158 158.91 119.492 160.17C118.826 161.429 117.805 162.419 116.429 163.138C115.053 163.849 113.294 164.205 111.153 164.205H103.596V161.182H111.045C112.52 161.182 113.708 160.966 114.607 160.534C115.516 160.102 116.173 159.491 116.577 158.699C116.991 157.898 117.198 156.945 117.198 155.838C117.198 154.732 116.991 153.764 116.577 152.937C116.164 152.109 115.502 151.47 114.594 151.021C113.685 150.562 112.484 150.332 110.991 150.332H105.107V175H101.761ZM114.769 162.585L121.57 175H117.684L110.991 162.585H114.769ZM126.067 175V147.364H135.405C137.573 147.364 139.346 147.755 140.722 148.538C142.108 149.311 143.133 150.359 143.799 151.682C144.465 153.004 144.797 154.48 144.797 156.108C144.797 157.736 144.465 159.216 143.799 160.548C143.142 161.879 142.126 162.941 140.749 163.732C139.373 164.515 137.609 164.906 135.459 164.906H128.766V161.938H135.351C136.836 161.938 138.028 161.681 138.927 161.168C139.827 160.656 140.479 159.963 140.884 159.09C141.298 158.209 141.505 157.214 141.505 156.108C141.505 155.001 141.298 154.012 140.884 153.139C140.479 152.267 139.823 151.583 138.914 151.088C138.005 150.584 136.8 150.332 135.297 150.332H129.414V175H126.067ZM150.188 175V147.364H159.526C161.686 147.364 163.458 147.732 164.843 148.47C166.229 149.199 167.254 150.202 167.92 151.479C168.586 152.757 168.919 154.21 168.919 155.838C168.919 157.466 168.586 158.91 167.92 160.17C167.254 161.429 166.233 162.419 164.857 163.138C163.48 163.849 161.722 164.205 159.58 164.205H152.024V161.182H159.472C160.948 161.182 162.135 160.966 163.035 160.534C163.944 160.102 164.6 159.491 165.005 158.699C165.419 157.898 165.626 156.945 165.626 155.838C165.626 154.732 165.419 153.764 165.005 152.937C164.591 152.109 163.93 151.47 163.021 151.021C162.113 150.562 160.912 150.332 159.419 150.332H153.535V175H150.188ZM163.197 162.585L169.998 175H166.112L159.419 162.585H163.197ZM177.842 147.364V175H174.495V147.364H177.842ZM199.665 154.273C199.503 152.905 198.847 151.844 197.695 151.088C196.544 150.332 195.131 149.955 193.458 149.955C192.234 149.955 191.164 150.152 190.246 150.548C189.338 150.944 188.627 151.488 188.114 152.181C187.61 152.874 187.358 153.661 187.358 154.543C187.358 155.28 187.534 155.915 187.885 156.445C188.245 156.967 188.703 157.403 189.261 157.754C189.819 158.096 190.404 158.379 191.015 158.604C191.627 158.82 192.189 158.996 192.702 159.131L195.509 159.886C196.229 160.075 197.029 160.336 197.911 160.669C198.802 161.002 199.652 161.456 200.461 162.032C201.28 162.599 201.955 163.327 202.486 164.218C203.016 165.109 203.282 166.202 203.282 167.497C203.282 168.991 202.89 170.34 202.108 171.545C201.334 172.751 200.201 173.709 198.707 174.42C197.223 175.13 195.419 175.486 193.296 175.486C191.317 175.486 189.603 175.166 188.155 174.528C186.715 173.889 185.582 172.998 184.754 171.856C183.935 170.713 183.472 169.386 183.364 167.875H186.819C186.909 168.919 187.26 169.782 187.871 170.466C188.492 171.141 189.275 171.644 190.219 171.977C191.173 172.301 192.198 172.463 193.296 172.463C194.573 172.463 195.72 172.256 196.737 171.842C197.754 171.42 198.559 170.835 199.153 170.088C199.746 169.332 200.043 168.451 200.043 167.443C200.043 166.526 199.787 165.779 199.274 165.203C198.761 164.627 198.086 164.16 197.25 163.8C196.413 163.44 195.509 163.125 194.537 162.855L191.137 161.884C188.978 161.263 187.269 160.377 186.009 159.225C184.75 158.074 184.12 156.567 184.12 154.705C184.12 153.157 184.538 151.808 185.375 150.656C186.22 149.496 187.354 148.596 188.775 147.957C190.206 147.31 191.803 146.986 193.566 146.986C195.347 146.986 196.93 147.305 198.316 147.944C199.701 148.574 200.799 149.437 201.608 150.535C202.427 151.632 202.859 152.878 202.904 154.273H199.665ZM208.784 175V147.364H225.463V150.332H212.131V159.67H224.599V162.639H212.131V172.031H225.679V175H208.784ZM246.609 154.273C246.447 152.905 245.79 151.844 244.638 151.088C243.487 150.332 242.075 149.955 240.401 149.955C239.178 149.955 238.107 150.152 237.19 150.548C236.281 150.944 235.57 151.488 235.058 152.181C234.554 152.874 234.302 153.661 234.302 154.543C234.302 155.28 234.477 155.915 234.828 156.445C235.188 156.967 235.647 157.403 236.205 157.754C236.762 158.096 237.347 158.379 237.959 158.604C238.571 158.82 239.133 158.996 239.646 159.131L242.452 159.886C243.172 160.075 243.973 160.336 244.854 160.669C245.745 161.002 246.595 161.456 247.405 162.032C248.223 162.599 248.898 163.327 249.429 164.218C249.96 165.109 250.225 166.202 250.225 167.497C250.225 168.991 249.834 170.34 249.051 171.545C248.277 172.751 247.144 173.709 245.651 174.42C244.166 175.13 242.362 175.486 240.239 175.486C238.26 175.486 236.546 175.166 235.098 174.528C233.659 173.889 232.525 172.998 231.697 171.856C230.879 170.713 230.415 169.386 230.308 167.875H233.762C233.852 168.919 234.203 169.782 234.815 170.466C235.435 171.141 236.218 171.644 237.163 171.977C238.116 172.301 239.142 172.463 240.239 172.463C241.517 172.463 242.664 172.256 243.68 171.842C244.697 171.42 245.502 170.835 246.096 170.088C246.69 169.332 246.987 168.451 246.987 167.443C246.987 166.526 246.73 165.779 246.217 165.203C245.705 164.627 245.03 164.16 244.193 163.8C243.357 163.44 242.452 163.125 241.481 162.855L238.08 161.884C235.921 161.263 234.212 160.377 232.952 159.225C231.693 158.074 231.063 156.567 231.063 154.705C231.063 153.157 231.482 151.808 232.318 150.656C233.164 149.496 234.297 148.596 235.719 147.957C237.149 147.31 238.746 146.986 240.509 146.986C242.29 146.986 243.874 147.305 245.259 147.944C246.645 148.574 247.742 149.437 248.552 150.535C249.371 151.632 249.802 152.878 249.847 154.273H246.609Z"/>
</mask>
<path d="M3.34659 175V147.364H20.0256V150.332H6.69318V159.67H19.1619V162.639H6.69318V172.031H20.2415V175H3.34659ZM47.9723 147.364V175H44.7337L29.674 153.301H29.4041V175H26.0575V147.364H29.2962L44.4098 169.116H44.6797V147.364H47.9723ZM53.1575 150.332V147.364H73.8848V150.332H65.1944V175H61.8478V150.332H53.1575ZM79.0497 175V147.364H95.7287V150.332H82.3963V159.67H94.8651V162.639H82.3963V172.031H95.9446V175H79.0497ZM101.761 175V147.364H111.099C113.258 147.364 115.03 147.732 116.415 148.47C117.801 149.199 118.826 150.202 119.492 151.479C120.158 152.757 120.491 154.21 120.491 155.838C120.491 157.466 120.158 158.91 119.492 160.17C118.826 161.429 117.805 162.419 116.429 163.138C115.053 163.849 113.294 164.205 111.153 164.205H103.596V161.182H111.045C112.52 161.182 113.708 160.966 114.607 160.534C115.516 160.102 116.173 159.491 116.577 158.699C116.991 157.898 117.198 156.945 117.198 155.838C117.198 154.732 116.991 153.764 116.577 152.937C116.164 152.109 115.502 151.47 114.594 151.021C113.685 150.562 112.484 150.332 110.991 150.332H105.107V175H101.761ZM114.769 162.585L121.57 175H117.684L110.991 162.585H114.769ZM126.067 175V147.364H135.405C137.573 147.364 139.346 147.755 140.722 148.538C142.108 149.311 143.133 150.359 143.799 151.682C144.465 153.004 144.797 154.48 144.797 156.108C144.797 157.736 144.465 159.216 143.799 160.548C143.142 161.879 142.126 162.941 140.749 163.732C139.373 164.515 137.609 164.906 135.459 164.906H128.766V161.938H135.351C136.836 161.938 138.028 161.681 138.927 161.168C139.827 160.656 140.479 159.963 140.884 159.09C141.298 158.209 141.505 157.214 141.505 156.108C141.505 155.001 141.298 154.012 140.884 153.139C140.479 152.267 139.823 151.583 138.914 151.088C138.005 150.584 136.8 150.332 135.297 150.332H129.414V175H126.067ZM150.188 175V147.364H159.526C161.686 147.364 163.458 147.732 164.843 148.47C166.229 149.199 167.254 150.202 167.92 151.479C168.586 152.757 168.919 154.21 168.919 155.838C168.919 157.466 168.586 158.91 167.92 160.17C167.254 161.429 166.233 162.419 164.857 163.138C163.48 163.849 161.722 164.205 159.58 164.205H152.024V161.182H159.472C160.948 161.182 162.135 160.966 163.035 160.534C163.944 160.102 164.6 159.491 165.005 158.699C165.419 157.898 165.626 156.945 165.626 155.838C165.626 154.732 165.419 153.764 165.005 152.937C164.591 152.109 163.93 151.47 163.021 151.021C162.113 150.562 160.912 150.332 159.419 150.332H153.535V175H150.188ZM163.197 162.585L169.998 175H166.112L159.419 162.585H163.197ZM177.842 147.364V175H174.495V147.364H177.842ZM199.665 154.273C199.503 152.905 198.847 151.844 197.695 151.088C196.544 150.332 195.131 149.955 193.458 149.955C192.234 149.955 191.164 150.152 190.246 150.548C189.338 150.944 188.627 151.488 188.114 152.181C187.61 152.874 187.358 153.661 187.358 154.543C187.358 155.28 187.534 155.915 187.885 156.445C188.245 156.967 188.703 157.403 189.261 157.754C189.819 158.096 190.404 158.379 191.015 158.604C191.627 158.82 192.189 158.996 192.702 159.131L195.509 159.886C196.229 160.075 197.029 160.336 197.911 160.669C198.802 161.002 199.652 161.456 200.461 162.032C201.28 162.599 201.955 163.327 202.486 164.218C203.016 165.109 203.282 166.202 203.282 167.497C203.282 168.991 202.89 170.34 202.108 171.545C201.334 172.751 200.201 173.709 198.707 174.42C197.223 175.13 195.419 175.486 193.296 175.486C191.317 175.486 189.603 175.166 188.155 174.528C186.715 173.889 185.582 172.998 184.754 171.856C183.935 170.713 183.472 169.386 183.364 167.875H186.819C186.909 168.919 187.26 169.782 187.871 170.466C188.492 171.141 189.275 171.644 190.219 171.977C191.173 172.301 192.198 172.463 193.296 172.463C194.573 172.463 195.72 172.256 196.737 171.842C197.754 171.42 198.559 170.835 199.153 170.088C199.746 169.332 200.043 168.451 200.043 167.443C200.043 166.526 199.787 165.779 199.274 165.203C198.761 164.627 198.086 164.16 197.25 163.8C196.413 163.44 195.509 163.125 194.537 162.855L191.137 161.884C188.978 161.263 187.269 160.377 186.009 159.225C184.75 158.074 184.12 156.567 184.12 154.705C184.12 153.157 184.538 151.808 185.375 150.656C186.22 149.496 187.354 148.596 188.775 147.957C190.206 147.31 191.803 146.986 193.566 146.986C195.347 146.986 196.93 147.305 198.316 147.944C199.701 148.574 200.799 149.437 201.608 150.535C202.427 151.632 202.859 152.878 202.904 154.273H199.665ZM208.784 175V147.364H225.463V150.332H212.131V159.67H224.599V162.639H212.131V172.031H225.679V175H208.784ZM246.609 154.273C246.447 152.905 245.79 151.844 244.638 151.088C243.487 150.332 242.075 149.955 240.401 149.955C239.178 149.955 238.107 150.152 237.19 150.548C236.281 150.944 235.57 151.488 235.058 152.181C234.554 152.874 234.302 153.661 234.302 154.543C234.302 155.28 234.477 155.915 234.828 156.445C235.188 156.967 235.647 157.403 236.205 157.754C236.762 158.096 237.347 158.379 237.959 158.604C238.571 158.82 239.133 158.996 239.646 159.131L242.452 159.886C243.172 160.075 243.973 160.336 244.854 160.669C245.745 161.002 246.595 161.456 247.405 162.032C248.223 162.599 248.898 163.327 249.429 164.218C249.96 165.109 250.225 166.202 250.225 167.497C250.225 168.991 249.834 170.34 249.051 171.545C248.277 172.751 247.144 173.709 245.651 174.42C244.166 175.13 242.362 175.486 240.239 175.486C238.26 175.486 236.546 175.166 235.098 174.528C233.659 173.889 232.525 172.998 231.697 171.856C230.879 170.713 230.415 169.386 230.308 167.875H233.762C233.852 168.919 234.203 169.782 234.815 170.466C235.435 171.141 236.218 171.644 237.163 171.977C238.116 172.301 239.142 172.463 240.239 172.463C241.517 172.463 242.664 172.256 243.68 171.842C244.697 171.42 245.502 170.835 246.096 170.088C246.69 169.332 246.987 168.451 246.987 167.443C246.987 166.526 246.73 165.779 246.217 165.203C245.705 164.627 245.03 164.16 244.193 163.8C243.357 163.44 242.452 163.125 241.481 162.855L238.08 161.884C235.921 161.263 234.212 160.377 232.952 159.225C231.693 158.074 231.063 156.567 231.063 154.705C231.063 153.157 231.482 151.808 232.318 150.656C233.164 149.496 234.297 148.596 235.719 147.957C237.149 147.31 238.746 146.986 240.509 146.986C242.29 146.986 243.874 147.305 245.259 147.944C246.645 148.574 247.742 149.437 248.552 150.535C249.371 151.632 249.802 152.878 249.847 154.273H246.609Z" fill="url(#paint0_linear_23_10)"/>
<path d="M3.34659 175H2.34659V176H3.34659V175ZM3.34659 147.364V146.364H2.34659V147.364H3.34659ZM20.0256 147.364H21.0256V146.364H20.0256V147.364ZM20.0256 150.332V151.332H21.0256V150.332H20.0256ZM6.69318 150.332V149.332H5.69318V150.332H6.69318ZM6.69318 159.67H5.69318V160.67H6.69318V159.67ZM19.1619 159.67H20.1619V158.67H19.1619V159.67ZM19.1619 162.639V163.639H20.1619V162.639H19.1619ZM6.69318 162.639V161.639H5.69318V162.639H6.69318ZM6.69318 172.031H5.69318V173.031H6.69318V172.031ZM20.2415 172.031H21.2415V171.031H20.2415V172.031ZM20.2415 175V176H21.2415V175H20.2415ZM3.34659 175H4.34659V147.364H3.34659H2.34659V175H3.34659ZM3.34659 147.364V148.364H20.0256V147.364V146.364H3.34659V147.364ZM20.0256 147.364H19.0256V150.332H20.0256H21.0256V147.364H20.0256ZM20.0256 150.332V149.332H6.69318V150.332V151.332H20.0256V150.332ZM6.69318 150.332H5.69318V159.67H6.69318H7.69318V150.332H6.69318ZM6.69318 159.67V160.67H19.1619V159.67V158.67H6.69318V159.67ZM19.1619 159.67H18.1619V162.639H19.1619H20.1619V159.67H19.1619ZM19.1619 162.639V161.639H6.69318V162.639V163.639H19.1619V162.639ZM6.69318 162.639H5.69318V172.031H6.69318H7.69318V162.639H6.69318ZM6.69318 172.031V173.031H20.2415V172.031V171.031H6.69318V172.031ZM20.2415 172.031H19.2415V175H20.2415H21.2415V172.031H20.2415ZM20.2415 175V174H3.34659V175V176H20.2415V175ZM47.9723 147.364H48.9723V146.364H47.9723V147.364ZM47.9723 175V176H48.9723V175H47.9723ZM44.7337 175L43.9121 175.57L44.2105 176H44.7337V175ZM29.674 153.301L30.4955 152.731L30.1972 152.301H29.674V153.301ZM29.4041 153.301V152.301H28.4041V153.301H29.4041ZM29.4041 175V176H30.4041V175H29.4041ZM26.0575 175H25.0575V176H26.0575V175ZM26.0575 147.364V146.364H25.0575V147.364H26.0575ZM29.2962 147.364L30.1174 146.793L29.8191 146.364H29.2962V147.364ZM44.4098 169.116L43.5886 169.687L43.8869 170.116H44.4098V169.116ZM44.6797 169.116V170.116H45.6797V169.116H44.6797ZM44.6797 147.364V146.364H43.6797V147.364H44.6797ZM47.9723 147.364H46.9723V175H47.9723H48.9723V147.364H47.9723ZM47.9723 175V174H44.7337V175V176H47.9723V175ZM44.7337 175L45.5552 174.43L30.4955 152.731L29.674 153.301L28.8525 153.871L43.9121 175.57L44.7337 175ZM29.674 153.301V152.301H29.4041V153.301V154.301H29.674V153.301ZM29.4041 153.301H28.4041V175H29.4041H30.4041V153.301H29.4041ZM29.4041 175V174H26.0575V175V176H29.4041V175ZM26.0575 175H27.0575V147.364H26.0575H25.0575V175H26.0575ZM26.0575 147.364V148.364H29.2962V147.364V146.364H26.0575V147.364ZM29.2962 147.364L28.4749 147.934L43.5886 169.687L44.4098 169.116L45.231 168.546L30.1174 146.793L29.2962 147.364ZM44.4098 169.116V170.116H44.6797V169.116V168.116H44.4098V169.116ZM44.6797 169.116H45.6797V147.364H44.6797H43.6797V169.116H44.6797ZM44.6797 147.364V148.364H47.9723V147.364V146.364H44.6797V147.364ZM53.1575 150.332H52.1575V151.332H53.1575V150.332ZM53.1575 147.364V146.364H52.1575V147.364H53.1575ZM73.8848 147.364H74.8848V146.364H73.8848V147.364ZM73.8848 150.332V151.332H74.8848V150.332H73.8848ZM65.1944 150.332V149.332H64.1944V150.332H65.1944ZM65.1944 175V176H66.1944V175H65.1944ZM61.8478 175H60.8478V176H61.8478V175ZM61.8478 150.332H62.8478V149.332H61.8478V150.332ZM53.1575 150.332H54.1575V147.364H53.1575H52.1575V150.332H53.1575ZM53.1575 147.364V148.364H73.8848V147.364V146.364H53.1575V147.364ZM73.8848 147.364H72.8848V150.332H73.8848H74.8848V147.364H73.8848ZM73.8848 150.332V149.332H65.1944V150.332V151.332H73.8848V150.332ZM65.1944 150.332H64.1944V175H65.1944H66.1944V150.332H65.1944ZM65.1944 175V174H61.8478V175V176H65.1944V175ZM61.8478 175H62.8478V150.332H61.8478H60.8478V175H61.8478ZM61.8478 150.332V149.332H53.1575V150.332V151.332H61.8478V150.332ZM79.0497 175H78.0497V176H79.0497V175ZM79.0497 147.364V146.364H78.0497V147.364H79.0497ZM95.7287 147.364H96.7287V146.364H95.7287V147.364ZM95.7287 150.332V151.332H96.7287V150.332H95.7287ZM82.3963 150.332V149.332H81.3963V150.332H82.3963ZM82.3963 159.67H81.3963V160.67H82.3963V159.67ZM94.8651 159.67H95.8651V158.67H94.8651V159.67ZM94.8651 162.639V163.639H95.8651V162.639H94.8651ZM82.3963 162.639V161.639H81.3963V162.639H82.3963ZM82.3963 172.031H81.3963V173.031H82.3963V172.031ZM95.9446 172.031H96.9446V171.031H95.9446V172.031ZM95.9446 175V176H96.9446V175H95.9446ZM79.0497 175H80.0497V147.364H79.0497H78.0497V175H79.0497ZM79.0497 147.364V148.364H95.7287V147.364V146.364H79.0497V147.364ZM95.7287 147.364H94.7287V150.332H95.7287H96.7287V147.364H95.7287ZM95.7287 150.332V149.332H82.3963V150.332V151.332H95.7287V150.332ZM82.3963 150.332H81.3963V159.67H82.3963H83.3963V150.332H82.3963ZM82.3963 159.67V160.67H94.8651V159.67V158.67H82.3963V159.67ZM94.8651 159.67H93.8651V162.639H94.8651H95.8651V159.67H94.8651ZM94.8651 162.639V161.639H82.3963V162.639V163.639H94.8651V162.639ZM82.3963 162.639H81.3963V172.031H82.3963H83.3963V162.639H82.3963ZM82.3963 172.031V173.031H95.9446V172.031V171.031H82.3963V172.031ZM95.9446 172.031H94.9446V175H95.9446H96.9446V172.031H95.9446ZM95.9446 175V174H79.0497V175V176H95.9446V175ZM101.761 175H100.761V176H101.761V175ZM101.761 147.364V146.364H100.761V147.364H101.761ZM116.415 148.47L115.945 149.353L115.95 149.355L116.415 148.47ZM119.492 151.479L118.605 151.942L118.605 151.942L119.492 151.479ZM119.492 160.17L118.608 159.702L118.608 159.702L119.492 160.17ZM116.429 163.138L116.888 164.027L116.892 164.025L116.429 163.138ZM103.596 164.205H102.596V165.205H103.596V164.205ZM103.596 161.182V160.182H102.596V161.182H103.596ZM114.607 160.534L114.178 159.631L114.175 159.633L114.607 160.534ZM116.577 158.699L115.689 158.24L115.687 158.244L116.577 158.699ZM114.594 151.021L114.143 151.913L114.15 151.917L114.594 151.021ZM105.107 150.332V149.332H104.107V150.332H105.107ZM105.107 175V176H106.107V175H105.107ZM114.769 162.585L115.646 162.105L115.362 161.585H114.769V162.585ZM121.57 175V176H123.258L122.447 174.52L121.57 175ZM117.684 175L116.804 175.475L117.087 176H117.684V175ZM110.991 162.585V161.585H109.316L110.111 163.06L110.991 162.585ZM101.761 175H102.761V147.364H101.761H100.761V175H101.761ZM101.761 147.364V148.364H111.099V147.364V146.364H101.761V147.364ZM111.099 147.364V148.364C113.152 148.364 114.749 148.716 115.945 149.353L116.415 148.47L116.885 147.587C115.311 146.749 113.363 146.364 111.099 146.364V147.364ZM116.415 148.47L115.95 149.355C117.172 149.998 118.042 150.86 118.605 151.942L119.492 151.479L120.379 151.017C119.611 149.543 118.43 148.4 116.881 147.585L116.415 148.47ZM119.492 151.479L118.605 151.942C119.188 153.059 119.491 154.349 119.491 155.838H120.491H121.491C121.491 154.07 121.128 152.455 120.379 151.017L119.492 151.479ZM120.491 155.838H119.491C119.491 157.327 119.187 158.606 118.608 159.702L119.492 160.17L120.376 160.637C121.128 159.214 121.491 157.606 121.491 155.838H120.491ZM119.492 160.17L118.608 159.702C118.046 160.767 117.18 161.618 115.966 162.252L116.429 163.138L116.892 164.025C118.431 163.22 119.607 162.092 120.376 160.637L119.492 160.17ZM116.429 163.138L115.97 162.25C114.779 162.865 113.192 163.205 111.153 163.205V164.205V165.205C113.396 165.205 115.326 164.834 116.888 164.027L116.429 163.138ZM111.153 164.205V163.205H103.596V164.205V165.205H111.153V164.205ZM103.596 164.205H104.596V161.182H103.596H102.596V164.205H103.596ZM103.596 161.182V162.182H111.045V161.182V160.182H103.596V161.182ZM111.045 161.182V162.182C112.604 162.182 113.956 161.956 115.04 161.436L114.607 160.534L114.175 159.633C113.459 159.976 112.436 160.182 111.045 160.182V161.182ZM114.607 160.534L115.036 161.437C116.116 160.924 116.95 160.167 117.468 159.154L116.577 158.699L115.687 158.244C115.395 158.814 114.915 159.281 114.178 159.631L114.607 160.534ZM116.577 158.699L117.466 159.158C117.968 158.187 118.198 157.069 118.198 155.838H117.198H116.198C116.198 156.821 116.015 157.61 115.689 158.24L116.577 158.699ZM117.198 155.838H118.198C118.198 154.606 117.967 153.481 117.472 152.49L116.577 152.937L115.683 153.384C116.015 154.048 116.198 154.857 116.198 155.838H117.198ZM116.577 152.937L117.472 152.49C116.951 151.448 116.121 150.661 115.037 150.124L114.594 151.021L114.15 151.917C114.883 152.28 115.376 152.77 115.683 153.384L116.577 152.937ZM114.594 151.021L115.044 150.128C113.946 149.573 112.573 149.332 110.991 149.332V150.332V151.332C112.395 151.332 113.424 151.55 114.143 151.913L114.594 151.021ZM110.991 150.332V149.332H105.107V150.332V151.332H110.991V150.332ZM105.107 150.332H104.107V175H105.107H106.107V150.332H105.107ZM105.107 175V174H101.761V175V176H105.107V175ZM114.769 162.585L113.892 163.066L120.693 175.48L121.57 175L122.447 174.52L115.646 162.105L114.769 162.585ZM121.57 175V174H117.684V175V176H121.57V175ZM117.684 175L118.564 174.525L111.871 162.111L110.991 162.585L110.111 163.06L116.804 175.475L117.684 175ZM110.991 162.585V163.585H114.769V162.585V161.585H110.991V162.585ZM126.067 175H125.067V176H126.067V175ZM126.067 147.364V146.364H125.067V147.364H126.067ZM140.722 148.538L140.228 149.407L140.235 149.411L140.722 148.538ZM143.799 151.682L142.906 152.131L142.906 152.131L143.799 151.682ZM143.799 160.548L142.904 160.1L142.902 160.105L143.799 160.548ZM140.749 163.732L141.243 164.602L141.248 164.599L140.749 163.732ZM128.766 164.906H127.766V165.906H128.766V164.906ZM128.766 161.938V160.938H127.766V161.938H128.766ZM138.927 161.168L138.432 160.3L138.432 160.3L138.927 161.168ZM140.884 159.09L139.979 158.665L139.977 158.669L140.884 159.09ZM140.884 153.139L139.977 153.56L139.981 153.568L140.884 153.139ZM138.914 151.088L138.429 151.963L138.436 151.966L138.914 151.088ZM129.414 150.332V149.332H128.414V150.332H129.414ZM129.414 175V176H130.414V175H129.414ZM126.067 175H127.067V147.364H126.067H125.067V175H126.067ZM126.067 147.364V148.364H135.405V147.364V146.364H126.067V147.364ZM135.405 147.364V148.364C137.461 148.364 139.048 148.736 140.228 149.407L140.722 148.538L141.216 147.668C139.644 146.774 137.686 146.364 135.405 146.364V147.364ZM140.722 148.538L140.235 149.411C141.459 150.094 142.336 151.001 142.906 152.131L143.799 151.682L144.692 151.232C143.93 149.718 142.756 148.528 141.21 147.665L140.722 148.538ZM143.799 151.682L142.906 152.131C143.494 153.301 143.797 154.62 143.797 156.108H144.797H145.797C145.797 154.339 145.435 152.708 144.692 151.232L143.799 151.682ZM144.797 156.108H143.797C143.797 157.596 143.494 158.92 142.904 160.1L143.799 160.548L144.693 160.995C145.435 159.512 145.797 157.877 145.797 156.108H144.797ZM143.799 160.548L142.902 160.105C142.339 161.246 141.468 162.165 140.251 162.865L140.749 163.732L141.248 164.599C142.783 163.716 143.945 162.512 144.696 160.99L143.799 160.548ZM140.749 163.732L140.255 162.863C139.073 163.535 137.496 163.906 135.459 163.906V164.906V165.906C137.723 165.906 139.672 165.495 141.243 164.602L140.749 163.732ZM135.459 164.906V163.906H128.766V164.906V165.906H135.459V164.906ZM128.766 164.906H129.766V161.938H128.766H127.766V164.906H128.766ZM128.766 161.938V162.938H135.351V161.938V160.938H128.766V161.938ZM135.351 161.938V162.938C136.939 162.938 138.321 162.665 139.423 162.037L138.927 161.168L138.432 160.3C137.735 160.697 136.733 160.938 135.351 160.938V161.938ZM138.927 161.168L139.423 162.037C140.488 161.43 141.292 160.587 141.791 159.511L140.884 159.09L139.977 158.669C139.666 159.339 139.166 159.881 138.432 160.3L138.927 161.168ZM140.884 159.09L141.789 159.515C142.274 158.484 142.505 157.341 142.505 156.108H141.505H140.505C140.505 157.088 140.322 157.934 139.979 158.665L140.884 159.09ZM141.505 156.108H142.505C142.505 154.875 142.274 153.736 141.788 152.711L140.884 153.139L139.981 153.568C140.322 154.288 140.505 155.128 140.505 156.108H141.505ZM140.884 153.139L141.791 152.718C141.289 151.636 140.474 150.799 139.392 150.21L138.914 151.088L138.436 151.966C139.171 152.367 139.669 152.897 139.977 153.56L140.884 153.139ZM138.914 151.088L139.399 150.214C138.29 149.599 136.899 149.332 135.297 149.332V150.332V151.332C136.701 151.332 137.72 151.57 138.429 151.963L138.914 151.088ZM135.297 150.332V149.332H129.414V150.332V151.332H135.297V150.332ZM129.414 150.332H128.414V175H129.414H130.414V150.332H129.414ZM129.414 175V174H126.067V175V176H129.414V175ZM150.188 175H149.188V176H150.188V175ZM150.188 147.364V146.364H149.188V147.364H150.188ZM164.843 148.47L164.373 149.353L164.378 149.355L164.843 148.47ZM167.92 151.479L167.033 151.942L167.033 151.942L167.92 151.479ZM167.92 160.17L167.036 159.702L167.036 159.702L167.92 160.17ZM164.857 163.138L165.316 164.027L165.32 164.025L164.857 163.138ZM152.024 164.205H151.024V165.205H152.024V164.205ZM152.024 161.182V160.182H151.024V161.182H152.024ZM163.035 160.534L162.606 159.631L162.602 159.633L163.035 160.534ZM165.005 158.699L164.117 158.24L164.115 158.244L165.005 158.699ZM163.021 151.021L162.571 151.913L162.578 151.917L163.021 151.021ZM153.535 150.332V149.332H152.535V150.332H153.535ZM153.535 175V176H154.535V175H153.535ZM163.197 162.585L164.074 162.105L163.789 161.585H163.197V162.585ZM169.998 175V176H171.686L170.875 174.52L169.998 175ZM166.112 175L165.231 175.475L165.515 176H166.112V175ZM159.419 162.585V161.585H157.743L158.538 163.06L159.419 162.585ZM150.188 175H151.188V147.364H150.188H149.188V175H150.188ZM150.188 147.364V148.364H159.526V147.364V146.364H150.188V147.364ZM159.526 147.364V148.364C161.58 148.364 163.177 148.716 164.373 149.353L164.843 148.47L165.313 147.587C163.739 146.749 161.791 146.364 159.526 146.364V147.364ZM164.843 148.47L164.378 149.355C165.599 149.998 166.47 150.86 167.033 151.942L167.92 151.479L168.807 151.017C168.039 149.543 166.858 148.4 165.309 147.585L164.843 148.47ZM167.92 151.479L167.033 151.942C167.615 153.059 167.919 154.349 167.919 155.838H168.919H169.919C169.919 154.07 169.556 152.455 168.807 151.017L167.92 151.479ZM168.919 155.838H167.919C167.919 157.327 167.615 158.606 167.036 159.702L167.92 160.17L168.804 160.637C169.556 159.214 169.919 157.606 169.919 155.838H168.919ZM167.92 160.17L167.036 159.702C166.473 160.767 165.607 161.618 164.393 162.252L164.857 163.138L165.32 164.025C166.859 163.22 168.035 162.092 168.804 160.637L167.92 160.17ZM164.857 163.138L164.398 162.25C163.207 162.865 161.62 163.205 159.58 163.205V164.205V165.205C161.823 165.205 163.754 164.834 165.316 164.027L164.857 163.138ZM159.58 164.205V163.205H152.024V164.205V165.205H159.58V164.205ZM152.024 164.205H153.024V161.182H152.024H151.024V164.205H152.024ZM152.024 161.182V162.182H159.472V161.182V160.182H152.024V161.182ZM159.472 161.182V162.182C161.032 162.182 162.384 161.956 163.468 161.436L163.035 160.534L162.602 159.633C161.887 159.976 160.864 160.182 159.472 160.182V161.182ZM163.035 160.534L163.464 161.437C164.544 160.924 165.377 160.167 165.895 159.154L165.005 158.699L164.115 158.244C163.823 158.814 163.343 159.281 162.606 159.631L163.035 160.534ZM165.005 158.699L165.894 159.158C166.396 158.187 166.626 157.069 166.626 155.838H165.626H164.626C164.626 156.821 164.442 157.61 164.117 158.24L165.005 158.699ZM165.626 155.838H166.626C166.626 154.606 166.395 153.481 165.9 152.49L165.005 152.937L164.111 153.384C164.443 154.048 164.626 154.857 164.626 155.838H165.626ZM165.005 152.937L165.9 152.49C165.379 151.448 164.549 150.661 163.465 150.124L163.021 151.021L162.578 151.917C163.311 152.28 163.804 152.77 164.111 153.384L165.005 152.937ZM163.021 151.021L163.472 150.128C162.374 149.573 161.001 149.332 159.419 149.332V150.332V151.332C160.823 151.332 161.852 151.55 162.571 151.913L163.021 151.021ZM159.419 150.332V149.332H153.535V150.332V151.332H159.419V150.332ZM153.535 150.332H152.535V175H153.535H154.535V150.332H153.535ZM153.535 175V174H150.188V175V176H153.535V175ZM163.197 162.585L162.32 163.066L169.121 175.48L169.998 175L170.875 174.52L164.074 162.105L163.197 162.585ZM169.998 175V174H166.112V175V176H169.998V175ZM166.112 175L166.992 174.525L160.299 162.111L159.419 162.585L158.538 163.06L165.231 175.475L166.112 175ZM159.419 162.585V163.585H163.197V162.585V161.585H159.419V162.585ZM177.842 147.364H178.842V146.364H177.842V147.364ZM177.842 175V176H178.842V175H177.842ZM174.495 175H173.495V176H174.495V175ZM174.495 147.364V146.364H173.495V147.364H174.495ZM177.842 147.364H176.842V175H177.842H178.842V147.364H177.842ZM177.842 175V174H174.495V175V176H177.842V175ZM174.495 175H175.495V147.364H174.495H173.495V175H174.495ZM174.495 147.364V148.364H177.842V147.364V146.364H174.495V147.364ZM199.665 154.273L198.672 154.39L198.777 155.273H199.665V154.273ZM197.695 151.088L197.146 151.924L197.146 151.924L197.695 151.088ZM190.246 150.548L189.85 149.63L189.847 149.632L190.246 150.548ZM188.114 152.181L187.31 151.586L187.305 151.593L188.114 152.181ZM187.885 156.445L187.051 156.997L187.056 157.005L187.062 157.013L187.885 156.445ZM189.261 157.754L188.729 158.601L188.739 158.607L189.261 157.754ZM191.015 158.604L190.67 159.543L190.683 159.547L191.015 158.604ZM192.702 159.131L192.962 158.165L192.957 158.164L192.702 159.131ZM195.509 159.886L195.249 160.852L195.255 160.854L195.509 159.886ZM197.911 160.669L197.558 161.605L197.561 161.606L197.911 160.669ZM200.461 162.032L199.882 162.847L199.892 162.854L200.461 162.032ZM202.486 164.218L203.345 163.706L203.345 163.706L202.486 164.218ZM202.108 171.545L201.269 171.001L201.266 171.005L202.108 171.545ZM198.707 174.42L198.277 173.517L198.275 173.518L198.707 174.42ZM188.155 174.528L187.749 175.442L187.751 175.443L188.155 174.528ZM184.754 171.856L183.941 172.438L183.944 172.442L184.754 171.856ZM183.364 167.875V166.875H182.29L182.367 167.946L183.364 167.875ZM186.819 167.875L187.815 167.789L187.736 166.875H186.819V167.875ZM187.871 170.466L187.126 171.133L187.135 171.143L187.871 170.466ZM190.219 171.977L189.887 172.92L189.898 172.924L190.219 171.977ZM196.737 171.842L197.114 172.769L197.121 172.766L196.737 171.842ZM199.153 170.088L199.935 170.71L199.939 170.706L199.153 170.088ZM199.274 165.203L200.021 164.538L200.021 164.538L199.274 165.203ZM197.25 163.8L196.855 164.718L196.855 164.718L197.25 163.8ZM194.537 162.855L194.263 163.817L194.27 163.819L194.537 162.855ZM191.137 161.884L190.861 162.845L190.862 162.845L191.137 161.884ZM186.009 159.225L185.334 159.963L185.334 159.963L186.009 159.225ZM185.375 150.656L184.567 150.067L184.566 150.068L185.375 150.656ZM188.775 147.957L189.185 148.87L189.188 148.868L188.775 147.957ZM198.316 147.944L197.897 148.852L197.902 148.854L198.316 147.944ZM201.608 150.535L200.804 151.128L200.807 151.133L201.608 150.535ZM202.904 154.273V155.273H203.937L203.903 154.24L202.904 154.273ZM199.665 154.273L200.658 154.155C200.462 152.494 199.642 151.17 198.244 150.252L197.695 151.088L197.146 151.924C198.051 152.518 198.545 153.316 198.672 154.39L199.665 154.273ZM197.695 151.088L198.244 150.252C196.897 149.368 195.284 148.955 193.458 148.955V149.955V150.955C194.979 150.955 196.19 151.296 197.146 151.924L197.695 151.088ZM193.458 149.955V148.955C192.128 148.955 190.918 149.17 189.85 149.63L190.246 150.548L190.642 151.467C191.41 151.135 192.341 150.955 193.458 150.955V149.955ZM190.246 150.548L189.847 149.632C188.802 150.087 187.942 150.733 187.31 151.586L188.114 152.181L188.918 152.776C189.312 152.244 189.873 151.802 190.646 151.465L190.246 150.548ZM188.114 152.181L187.305 151.593C186.673 152.462 186.358 153.456 186.358 154.543H187.358H188.358C188.358 153.866 188.547 153.286 188.923 152.769L188.114 152.181ZM187.358 154.543H186.358C186.358 155.444 186.575 156.278 187.051 156.997L187.885 156.445L188.719 155.894C188.493 155.552 188.358 155.116 188.358 154.543H187.358ZM187.885 156.445L187.062 157.013C187.501 157.651 188.061 158.181 188.729 158.601L189.261 157.754L189.794 156.908C189.346 156.626 188.988 156.283 188.708 155.878L187.885 156.445ZM189.261 157.754L188.739 158.607C189.352 158.983 189.997 159.295 190.67 159.543L191.015 158.604L191.361 157.666C190.811 157.464 190.286 157.209 189.784 156.902L189.261 157.754ZM191.015 158.604L190.683 159.547C191.315 159.77 191.903 159.955 192.448 160.098L192.702 159.131L192.957 158.164C192.475 158.037 191.94 157.87 191.348 157.661L191.015 158.604ZM192.702 159.131L192.442 160.096L195.249 160.852L195.509 159.886L195.769 158.921L192.962 158.165L192.702 159.131ZM195.509 159.886L195.255 160.854C195.934 161.032 196.701 161.281 197.558 161.605L197.911 160.669L198.264 159.733C197.358 159.391 196.524 159.119 195.763 158.919L195.509 159.886ZM197.911 160.669L197.561 161.606C198.367 161.907 199.14 162.319 199.882 162.847L200.461 162.032L201.041 161.217C200.164 160.593 199.237 160.097 198.261 159.732L197.911 160.669ZM200.461 162.032L199.892 162.854C200.588 163.336 201.166 163.957 201.627 164.73L202.486 164.218L203.345 163.706C202.744 162.698 201.972 161.861 201.031 161.21L200.461 162.032ZM202.486 164.218L201.627 164.73C202.045 165.432 202.282 166.337 202.282 167.497H203.282H204.282C204.282 166.066 203.988 164.786 203.345 163.706L202.486 164.218ZM203.282 167.497H202.282C202.282 168.805 201.942 169.964 201.269 171.001L202.108 171.545L202.947 172.09C203.839 170.716 204.282 169.176 204.282 167.497H203.282ZM202.108 171.545L201.266 171.005C200.608 172.031 199.629 172.874 198.277 173.517L198.707 174.42L199.137 175.323C200.772 174.544 202.06 173.471 202.949 172.086L202.108 171.545ZM198.707 174.42L198.275 173.518C196.959 174.148 195.311 174.486 193.296 174.486V175.486V176.486C195.527 176.486 197.487 176.113 199.139 175.322L198.707 174.42ZM193.296 175.486V174.486C191.422 174.486 189.852 174.183 188.558 173.613L188.155 174.528L187.751 175.443C189.354 176.15 191.212 176.486 193.296 176.486V175.486ZM188.155 174.528L188.56 173.614C187.263 173.038 186.276 172.253 185.564 171.269L184.754 171.856L183.944 172.442C184.887 173.744 186.168 174.74 187.749 175.442L188.155 174.528ZM184.754 171.856L185.567 171.273C184.864 170.293 184.457 169.146 184.362 167.804L183.364 167.875L182.367 167.946C182.487 169.627 183.007 171.134 183.941 172.438L184.754 171.856ZM183.364 167.875V168.875H186.819V167.875V166.875H183.364V167.875ZM186.819 167.875L185.822 167.961C185.928 169.188 186.35 170.265 187.126 171.133L187.871 170.466L188.617 169.799C188.169 169.299 187.889 168.649 187.815 167.789L186.819 167.875ZM187.871 170.466L187.135 171.143C187.877 171.949 188.803 172.538 189.887 172.92L190.219 171.977L190.552 171.034C189.747 170.75 189.107 170.332 188.607 169.789L187.871 170.466ZM190.219 171.977L189.898 172.924C190.964 173.286 192.099 173.463 193.296 173.463V172.463V171.463C192.298 171.463 191.382 171.316 190.541 171.03L190.219 171.977ZM193.296 172.463V173.463C194.682 173.463 195.96 173.238 197.114 172.769L196.737 171.842L196.36 170.916C195.481 171.274 194.465 171.463 193.296 171.463V172.463ZM196.737 171.842L197.121 172.766C198.27 172.288 199.221 171.609 199.935 170.71L199.153 170.088L198.37 169.466C197.897 170.061 197.238 170.551 196.353 170.919L196.737 171.842ZM199.153 170.088L199.939 170.706C200.678 169.765 201.043 168.663 201.043 167.443H200.043H199.043C199.043 168.238 198.814 168.9 198.366 169.47L199.153 170.088ZM200.043 167.443H201.043C201.043 166.33 200.727 165.331 200.021 164.538L199.274 165.203L198.527 165.868C198.847 166.227 199.043 166.722 199.043 167.443H200.043ZM199.274 165.203L200.021 164.538C199.395 163.835 198.592 163.288 197.645 162.881L197.25 163.8L196.855 164.718C197.581 165.031 198.128 165.42 198.527 165.868L199.274 165.203ZM197.25 163.8L197.645 162.881C196.763 162.502 195.816 162.172 194.805 161.892L194.537 162.855L194.27 163.819C195.203 164.078 196.064 164.378 196.855 164.718L197.25 163.8ZM194.537 162.855L194.812 161.894L191.412 160.922L191.137 161.884L190.862 162.845L194.263 163.817L194.537 162.855ZM191.137 161.884L191.413 160.922C189.357 160.331 187.799 159.507 186.684 158.487L186.009 159.225L185.334 159.963C186.738 161.246 188.598 162.194 190.861 162.845L191.137 161.884ZM186.009 159.225L186.684 158.487C185.652 157.544 185.12 156.315 185.12 154.705H184.12H183.12C183.12 156.819 183.847 158.604 185.334 159.963L186.009 159.225ZM184.12 154.705H185.12C185.12 153.349 185.482 152.21 186.184 151.244L185.375 150.656L184.566 150.068C183.594 151.406 183.12 152.965 183.12 154.705H184.12ZM185.375 150.656L186.183 151.245C186.918 150.237 187.909 149.443 189.185 148.87L188.775 147.957L188.366 147.045C186.799 147.749 185.523 148.754 184.567 150.067L185.375 150.656ZM188.775 147.957L189.188 148.868C190.474 148.286 191.927 147.986 193.566 147.986V146.986V145.986C191.678 145.986 189.938 146.333 188.363 147.046L188.775 147.957ZM193.566 146.986V147.986C195.227 147.986 196.663 148.283 197.897 148.852L198.316 147.944L198.735 147.036C197.198 146.327 195.468 145.986 193.566 145.986V146.986ZM198.316 147.944L197.902 148.854C199.151 149.422 200.107 150.183 200.804 151.128L201.608 150.535L202.413 149.941C201.491 148.691 200.252 147.725 198.73 147.034L198.316 147.944ZM201.608 150.535L200.807 151.133C201.501 152.063 201.866 153.111 201.904 154.305L202.904 154.273L203.903 154.24C203.852 152.646 203.353 151.202 202.41 149.937L201.608 150.535ZM202.904 154.273V153.273H199.665V154.273V155.273H202.904V154.273ZM208.784 175H207.784V176H208.784V175ZM208.784 147.364V146.364H207.784V147.364H208.784ZM225.463 147.364H226.463V146.364H225.463V147.364ZM225.463 150.332V151.332H226.463V150.332H225.463ZM212.131 150.332V149.332H211.131V150.332H212.131ZM212.131 159.67H211.131V160.67H212.131V159.67ZM224.599 159.67H225.599V158.67H224.599V159.67ZM224.599 162.639V163.639H225.599V162.639H224.599ZM212.131 162.639V161.639H211.131V162.639H212.131ZM212.131 172.031H211.131V173.031H212.131V172.031ZM225.679 172.031H226.679V171.031H225.679V172.031ZM225.679 175V176H226.679V175H225.679ZM208.784 175H209.784V147.364H208.784H207.784V175H208.784ZM208.784 147.364V148.364H225.463V147.364V146.364H208.784V147.364ZM225.463 147.364H224.463V150.332H225.463H226.463V147.364H225.463ZM225.463 150.332V149.332H212.131V150.332V151.332H225.463V150.332ZM212.131 150.332H211.131V159.67H212.131H213.131V150.332H212.131ZM212.131 159.67V160.67H224.599V159.67V158.67H212.131V159.67ZM224.599 159.67H223.599V162.639H224.599H225.599V159.67H224.599ZM224.599 162.639V161.639H212.131V162.639V163.639H224.599V162.639ZM212.131 162.639H211.131V172.031H212.131H213.131V162.639H212.131ZM212.131 172.031V173.031H225.679V172.031V171.031H212.131V172.031ZM225.679 172.031H224.679V175H225.679H226.679V172.031H225.679ZM225.679 175V174H208.784V175V176H225.679V175ZM246.609 154.273L245.616 154.39L245.72 155.273H246.609V154.273ZM244.638 151.088L244.09 151.924L244.09 151.924L244.638 151.088ZM237.19 150.548L236.794 149.63L236.79 149.632L237.19 150.548ZM235.058 152.181L234.254 151.586L234.249 151.593L235.058 152.181ZM234.828 156.445L233.994 156.997L233.999 157.005L234.005 157.013L234.828 156.445ZM236.205 157.754L235.672 158.601L235.682 158.607L236.205 157.754ZM237.959 158.604L237.614 159.543L237.626 159.547L237.959 158.604ZM239.646 159.131L239.906 158.165L239.9 158.164L239.646 159.131ZM242.452 159.886L242.192 160.852L242.199 160.854L242.452 159.886ZM244.854 160.669L244.501 161.605L244.504 161.606L244.854 160.669ZM247.405 162.032L246.825 162.847L246.836 162.854L247.405 162.032ZM249.429 164.218L250.288 163.706L250.288 163.706L249.429 164.218ZM249.051 171.545L248.212 171.001L248.21 171.005L249.051 171.545ZM245.651 174.42L245.221 173.517L245.219 173.518L245.651 174.42ZM235.098 174.528L234.692 175.442L234.695 175.443L235.098 174.528ZM231.697 171.856L230.885 172.438L230.888 172.442L231.697 171.856ZM230.308 167.875V166.875H229.234L229.31 167.946L230.308 167.875ZM233.762 167.875L234.758 167.789L234.68 166.875H233.762V167.875ZM234.815 170.466L234.069 171.133L234.079 171.143L234.815 170.466ZM237.163 171.977L236.83 172.92L236.841 172.924L237.163 171.977ZM243.68 171.842L244.057 172.769L244.064 172.766L243.68 171.842ZM246.096 170.088L246.879 170.71L246.882 170.706L246.096 170.088ZM246.217 165.203L246.964 164.538L246.964 164.538L246.217 165.203ZM244.193 163.8L243.798 164.718L243.798 164.718L244.193 163.8ZM241.481 162.855L241.206 163.817L241.213 163.819L241.481 162.855ZM238.08 161.884L237.804 162.845L237.806 162.845L238.08 161.884ZM232.952 159.225L232.278 159.963L232.278 159.963L232.952 159.225ZM232.318 150.656L231.51 150.067L231.509 150.068L232.318 150.656ZM235.719 147.957L236.129 148.87L236.131 148.868L235.719 147.957ZM245.259 147.944L244.841 148.852L244.845 148.854L245.259 147.944ZM248.552 150.535L247.747 151.128L247.75 151.133L248.552 150.535ZM249.847 154.273V155.273H250.88L250.847 154.24L249.847 154.273ZM246.609 154.273L247.602 154.155C247.405 152.494 246.586 151.17 245.187 150.252L244.638 151.088L244.09 151.924C244.994 152.518 245.488 153.316 245.616 154.39L246.609 154.273ZM244.638 151.088L245.187 150.252C243.841 149.368 242.227 148.955 240.401 148.955V149.955V150.955C241.922 150.955 243.133 151.296 244.09 151.924L244.638 151.088ZM240.401 149.955V148.955C239.071 148.955 237.861 149.17 236.794 149.63L237.19 150.548L237.586 151.467C238.354 151.135 239.284 150.955 240.401 150.955V149.955ZM237.19 150.548L236.79 149.632C235.745 150.087 234.886 150.733 234.254 151.586L235.058 152.181L235.861 152.776C236.255 152.244 236.817 151.802 237.589 151.465L237.19 150.548ZM235.058 152.181L234.249 151.593C233.617 152.462 233.302 153.456 233.302 154.543H234.302H235.302C235.302 153.866 235.491 153.286 235.866 152.769L235.058 152.181ZM234.302 154.543H233.302C233.302 155.444 233.519 156.278 233.994 156.997L234.828 156.445L235.662 155.894C235.436 155.552 235.302 155.116 235.302 154.543H234.302ZM234.828 156.445L234.005 157.013C234.445 157.651 235.004 158.181 235.672 158.601L236.205 157.754L236.737 156.908C236.289 156.626 235.931 156.283 235.651 155.878L234.828 156.445ZM236.205 157.754L235.682 158.607C236.296 158.983 236.94 159.295 237.614 159.543L237.959 158.604L238.304 157.666C237.754 157.464 237.229 157.209 236.727 156.902L236.205 157.754ZM237.959 158.604L237.626 159.547C238.258 159.77 238.847 159.955 239.391 160.098L239.646 159.131L239.9 158.164C239.419 158.037 238.883 157.87 238.292 157.661L237.959 158.604ZM239.646 159.131L239.386 160.096L242.192 160.852L242.452 159.886L242.712 158.921L239.906 158.165L239.646 159.131ZM242.452 159.886L242.199 160.854C242.877 161.032 243.644 161.281 244.501 161.605L244.854 160.669L245.208 159.733C244.302 159.391 243.467 159.119 242.706 158.919L242.452 159.886ZM244.854 160.669L244.504 161.606C245.31 161.907 246.083 162.319 246.825 162.847L247.405 162.032L247.984 161.217C247.107 160.593 246.18 160.097 245.204 159.732L244.854 160.669ZM247.405 162.032L246.836 162.854C247.532 163.336 248.109 163.957 248.57 164.73L249.429 164.218L250.288 163.706C249.687 162.698 248.915 161.861 247.974 161.21L247.405 162.032ZM249.429 164.218L248.57 164.73C248.988 165.432 249.225 166.337 249.225 167.497H250.225H251.225C251.225 166.066 250.931 164.786 250.288 163.706L249.429 164.218ZM250.225 167.497H249.225C249.225 168.805 248.886 169.964 248.212 171.001L249.051 171.545L249.89 172.09C250.782 170.716 251.225 169.176 251.225 167.497H250.225ZM249.051 171.545L248.21 171.005C247.551 172.031 246.572 172.874 245.221 173.517L245.651 174.42L246.08 175.323C247.716 174.544 249.004 173.471 249.893 172.086L249.051 171.545ZM245.651 174.42L245.219 173.518C243.902 174.148 242.255 174.486 240.239 174.486V175.486V176.486C242.47 176.486 244.43 176.113 246.082 175.322L245.651 174.42ZM240.239 175.486V174.486C238.365 174.486 236.795 174.183 235.502 173.613L235.098 174.528L234.695 175.443C236.298 176.15 238.155 176.486 240.239 176.486V175.486ZM235.098 174.528L235.504 173.614C234.206 173.038 233.22 172.253 232.507 171.269L231.697 171.856L230.888 172.442C231.83 173.744 233.111 174.74 234.692 175.442L235.098 174.528ZM231.697 171.856L232.51 171.273C231.808 170.293 231.401 169.146 231.305 167.804L230.308 167.875L229.31 167.946C229.43 169.627 229.95 171.134 230.885 172.438L231.697 171.856ZM230.308 167.875V168.875H233.762V167.875V166.875H230.308V167.875ZM233.762 167.875L232.766 167.961C232.872 169.188 233.293 170.265 234.069 171.133L234.815 170.466L235.56 169.799C235.112 169.299 234.832 168.649 234.758 167.789L233.762 167.875ZM234.815 170.466L234.079 171.143C234.82 171.949 235.746 172.538 236.83 172.92L237.163 171.977L237.495 171.034C236.69 170.75 236.051 170.332 235.551 169.789L234.815 170.466ZM237.163 171.977L236.841 172.924C237.907 173.286 239.042 173.463 240.239 173.463V172.463V171.463C239.241 171.463 238.325 171.316 237.484 171.03L237.163 171.977ZM240.239 172.463V173.463C241.625 173.463 242.903 173.238 244.057 172.769L243.68 171.842L243.303 170.916C242.424 171.274 241.408 171.463 240.239 171.463V172.463ZM243.68 171.842L244.064 172.766C245.213 172.288 246.164 171.609 246.879 170.71L246.096 170.088L245.313 169.466C244.84 170.061 244.181 170.551 243.296 170.919L243.68 171.842ZM246.096 170.088L246.882 170.706C247.621 169.765 247.987 168.663 247.987 167.443H246.987H245.987C245.987 168.238 245.758 168.9 245.31 169.47L246.096 170.088ZM246.987 167.443H247.987C247.987 166.33 247.67 165.331 246.964 164.538L246.217 165.203L245.471 165.868C245.79 166.227 245.987 166.722 245.987 167.443H246.987ZM246.217 165.203L246.964 164.538C246.338 163.835 245.535 163.288 244.588 162.881L244.193 163.8L243.798 164.718C244.524 165.031 245.071 165.42 245.471 165.868L246.217 165.203ZM244.193 163.8L244.588 162.881C243.706 162.502 242.759 162.172 241.748 161.892L241.481 162.855L241.213 163.819C242.146 164.078 243.007 164.378 243.798 164.718L244.193 163.8ZM241.481 162.855L241.756 161.894L238.355 160.922L238.08 161.884L237.806 162.845L241.206 163.817L241.481 162.855ZM238.08 161.884L238.357 160.922C236.301 160.331 234.743 159.507 233.627 158.487L232.952 159.225L232.278 159.963C233.681 161.246 235.542 162.194 237.804 162.845L238.08 161.884ZM232.952 159.225L233.627 158.487C232.595 157.544 232.063 156.315 232.063 154.705H231.063H230.063C230.063 156.819 230.791 158.604 232.278 159.963L232.952 159.225ZM231.063 154.705H232.063C232.063 153.349 232.426 152.21 233.127 151.244L232.318 150.656L231.509 150.068C230.537 151.406 230.063 152.965 230.063 154.705H231.063ZM232.318 150.656L233.126 151.245C233.861 150.237 234.852 149.443 236.129 148.87L235.719 147.957L235.309 147.045C233.743 147.749 232.467 148.754 231.51 150.067L232.318 150.656ZM235.719 147.957L236.131 148.868C237.417 148.286 238.871 147.986 240.509 147.986V146.986V145.986C238.621 145.986 236.881 146.333 235.306 147.046L235.719 147.957ZM240.509 146.986V147.986C242.17 147.986 243.607 148.283 244.841 148.852L245.259 147.944L245.678 147.036C244.141 146.327 242.411 145.986 240.509 145.986V146.986ZM245.259 147.944L244.845 148.854C246.094 149.422 247.05 150.183 247.747 151.128L248.552 150.535L249.357 149.941C248.434 148.691 247.195 147.725 245.673 147.034L245.259 147.944ZM248.552 150.535L247.75 151.133C248.444 152.063 248.809 153.111 248.848 154.305L249.847 154.273L250.847 154.24C250.795 152.646 250.297 151.202 249.353 149.937L248.552 150.535ZM249.847 154.273V153.273H246.609V154.273V155.273H249.847V154.273Z" fill="black" fill-opacity="0.5" mask="url(#path-3-outside-1_23_10)"/>
<defs>
<linearGradient id="paint0_linear_23_10" x1="128" y1="138" x2="128" y2="184" gradientUnits="userSpaceOnUse">
<stop offset="0.245192" stop-color="#F78154"/>
<stop offset="0.725962" stop-color="#4D9078"/>
</linearGradient>
</defs>
</svg>
