<svg width="260" height="187" viewBox="0 0 260 187" fill="none" xmlns="http://www.w3.org/2000/svg">
<rect width="260" height="187" fill="#2C3F51"/>
<path d="M36 134V3H44L94 54L144.5 3H154V34.5L94 92.5L65.5 65V134H36Z" fill="#5FAD56"/>
<path d="M95 134V102.5L195.5 3H235.5L155 84L205.5 134H165.5L135 104.5L123.5 115V134H95Z" fill="#F2C14E"/>
<mask id="path-3-outside-1_26_2" maskUnits="userSpaceOnUse" x="6" y="148" width="250" height="32" fill="black">
<rect fill="white" x="6" y="148" width="250" height="32"/>
<path d="M7.34659 178V150.364H24.0256V153.332H10.6932V162.67H23.1619V165.639H10.6932V175.031H24.2415V178H7.34659ZM51.9723 150.364V178H48.7337L33.674 156.301H33.4041V178H30.0575V150.364H33.2962L48.4098 172.116H48.6797V150.364H51.9723ZM57.1575 153.332V150.364H77.8848V153.332H69.1944V178H65.8478V153.332H57.1575ZM83.0497 178V150.364H99.7287V153.332H86.3963V162.67H98.8651V165.639H86.3963V175.031H99.9446V178H83.0497ZM105.761 178V150.364H115.099C117.258 150.364 119.03 150.732 120.415 151.47C121.801 152.199 122.826 153.202 123.492 154.479C124.158 155.757 124.491 157.21 124.491 158.838C124.491 160.466 124.158 161.91 123.492 163.17C122.826 164.429 121.805 165.419 120.429 166.138C119.053 166.849 117.294 167.205 115.153 167.205H107.596V164.182H115.045C116.52 164.182 117.708 163.966 118.607 163.534C119.516 163.102 120.173 162.491 120.577 161.699C120.991 160.898 121.198 159.945 121.198 158.838C121.198 157.732 120.991 156.764 120.577 155.937C120.164 155.109 119.502 154.47 118.594 154.021C117.685 153.562 116.484 153.332 114.991 153.332H109.107V178H105.761ZM118.769 165.585L125.57 178H121.684L114.991 165.585H118.769ZM130.067 178V150.364H139.405C141.573 150.364 143.346 150.755 144.722 151.538C146.108 152.311 147.133 153.359 147.799 154.682C148.465 156.004 148.797 157.48 148.797 159.108C148.797 160.736 148.465 162.216 147.799 163.548C147.142 164.879 146.126 165.941 144.749 166.732C143.373 167.515 141.609 167.906 139.459 167.906H132.766V164.938H139.351C140.836 164.938 142.028 164.681 142.927 164.168C143.827 163.656 144.479 162.963 144.884 162.09C145.298 161.209 145.505 160.214 145.505 159.108C145.505 158.001 145.298 157.012 144.884 156.139C144.479 155.267 143.823 154.583 142.914 154.088C142.005 153.584 140.8 153.332 139.297 153.332H133.414V178H130.067ZM154.188 178V150.364H163.526C165.686 150.364 167.458 150.732 168.843 151.47C170.229 152.199 171.254 153.202 171.92 154.479C172.586 155.757 172.919 157.21 172.919 158.838C172.919 160.466 172.586 161.91 171.92 163.17C171.254 164.429 170.233 165.419 168.857 166.138C167.48 166.849 165.722 167.205 163.58 167.205H156.024V164.182H163.472C164.948 164.182 166.135 163.966 167.035 163.534C167.944 163.102 168.6 162.491 169.005 161.699C169.419 160.898 169.626 159.945 169.626 158.838C169.626 157.732 169.419 156.764 169.005 155.937C168.591 155.109 167.93 154.47 167.021 154.021C166.113 153.562 164.912 153.332 163.419 153.332H157.535V178H154.188ZM167.197 165.585L173.998 178H170.112L163.419 165.585H167.197ZM181.842 150.364V178H178.495V150.364H181.842ZM203.665 157.273C203.503 155.905 202.847 154.844 201.695 154.088C200.544 153.332 199.131 152.955 197.458 152.955C196.234 152.955 195.164 153.152 194.246 153.548C193.338 153.944 192.627 154.488 192.114 155.181C191.61 155.874 191.358 156.661 191.358 157.543C191.358 158.28 191.534 158.915 191.885 159.445C192.245 159.967 192.703 160.403 193.261 160.754C193.819 161.096 194.404 161.379 195.015 161.604C195.627 161.82 196.189 161.996 196.702 162.131L199.509 162.886C200.229 163.075 201.029 163.336 201.911 163.669C202.802 164.002 203.652 164.456 204.461 165.032C205.28 165.599 205.955 166.327 206.486 167.218C207.016 168.109 207.282 169.202 207.282 170.497C207.282 171.991 206.89 173.34 206.108 174.545C205.334 175.751 204.201 176.709 202.707 177.42C201.223 178.13 199.419 178.486 197.296 178.486C195.317 178.486 193.603 178.166 192.155 177.528C190.715 176.889 189.582 175.998 188.754 174.856C187.935 173.713 187.472 172.386 187.364 170.875H190.819C190.909 171.919 191.26 172.782 191.871 173.466C192.492 174.141 193.275 174.644 194.219 174.977C195.173 175.301 196.198 175.463 197.296 175.463C198.573 175.463 199.72 175.256 200.737 174.842C201.754 174.42 202.559 173.835 203.153 173.088C203.746 172.332 204.043 171.451 204.043 170.443C204.043 169.526 203.787 168.779 203.274 168.203C202.761 167.627 202.086 167.16 201.25 166.8C200.413 166.44 199.509 166.125 198.537 165.855L195.137 164.884C192.978 164.263 191.269 163.377 190.009 162.225C188.75 161.074 188.12 159.567 188.12 157.705C188.12 156.157 188.538 154.808 189.375 153.656C190.22 152.496 191.354 151.596 192.775 150.957C194.206 150.31 195.803 149.986 197.566 149.986C199.347 149.986 200.93 150.305 202.316 150.944C203.701 151.574 204.799 152.437 205.608 153.535C206.427 154.632 206.859 155.878 206.904 157.273H203.665ZM212.784 178V150.364H229.463V153.332H216.131V162.67H228.599V165.639H216.131V175.031H229.679V178H212.784ZM250.609 157.273C250.447 155.905 249.79 154.844 248.638 154.088C247.487 153.332 246.075 152.955 244.401 152.955C243.178 152.955 242.107 153.152 241.19 153.548C240.281 153.944 239.57 154.488 239.058 155.181C238.554 155.874 238.302 156.661 238.302 157.543C238.302 158.28 238.477 158.915 238.828 159.445C239.188 159.967 239.647 160.403 240.205 160.754C240.762 161.096 241.347 161.379 241.959 161.604C242.571 161.82 243.133 161.996 243.646 162.131L246.452 162.886C247.172 163.075 247.973 163.336 248.854 163.669C249.745 164.002 250.595 164.456 251.405 165.032C252.223 165.599 252.898 166.327 253.429 167.218C253.96 168.109 254.225 169.202 254.225 170.497C254.225 171.991 253.834 173.34 253.051 174.545C252.277 175.751 251.144 176.709 249.651 177.42C248.166 178.13 246.362 178.486 244.239 178.486C242.26 178.486 240.546 178.166 239.098 177.528C237.659 176.889 236.525 175.998 235.697 174.856C234.879 173.713 234.415 172.386 234.308 170.875H237.762C237.852 171.919 238.203 172.782 238.815 173.466C239.435 174.141 240.218 174.644 241.163 174.977C242.116 175.301 243.142 175.463 244.239 175.463C245.517 175.463 246.664 175.256 247.68 174.842C248.697 174.42 249.502 173.835 250.096 173.088C250.69 172.332 250.987 171.451 250.987 170.443C250.987 169.526 250.73 168.779 250.217 168.203C249.705 167.627 249.03 167.16 248.193 166.8C247.357 166.44 246.452 166.125 245.481 165.855L242.08 164.884C239.921 164.263 238.212 163.377 236.952 162.225C235.693 161.074 235.063 159.567 235.063 157.705C235.063 156.157 235.482 154.808 236.318 153.656C237.164 152.496 238.297 151.596 239.719 150.957C241.149 150.31 242.746 149.986 244.509 149.986C246.29 149.986 247.874 150.305 249.259 150.944C250.645 151.574 251.742 152.437 252.552 153.535C253.371 154.632 253.802 155.878 253.847 157.273H250.609Z"/>
</mask>
<path d="M7.34659 178V150.364H24.0256V153.332H10.6932V162.67H23.1619V165.639H10.6932V175.031H24.2415V178H7.34659ZM51.9723 150.364V178H48.7337L33.674 156.301H33.4041V178H30.0575V150.364H33.2962L48.4098 172.116H48.6797V150.364H51.9723ZM57.1575 153.332V150.364H77.8848V153.332H69.1944V178H65.8478V153.332H57.1575ZM83.0497 178V150.364H99.7287V153.332H86.3963V162.67H98.8651V165.639H86.3963V175.031H99.9446V178H83.0497ZM105.761 178V150.364H115.099C117.258 150.364 119.03 150.732 120.415 151.47C121.801 152.199 122.826 153.202 123.492 154.479C124.158 155.757 124.491 157.21 124.491 158.838C124.491 160.466 124.158 161.91 123.492 163.17C122.826 164.429 121.805 165.419 120.429 166.138C119.053 166.849 117.294 167.205 115.153 167.205H107.596V164.182H115.045C116.52 164.182 117.708 163.966 118.607 163.534C119.516 163.102 120.173 162.491 120.577 161.699C120.991 160.898 121.198 159.945 121.198 158.838C121.198 157.732 120.991 156.764 120.577 155.937C120.164 155.109 119.502 154.47 118.594 154.021C117.685 153.562 116.484 153.332 114.991 153.332H109.107V178H105.761ZM118.769 165.585L125.57 178H121.684L114.991 165.585H118.769ZM130.067 178V150.364H139.405C141.573 150.364 143.346 150.755 144.722 151.538C146.108 152.311 147.133 153.359 147.799 154.682C148.465 156.004 148.797 157.48 148.797 159.108C148.797 160.736 148.465 162.216 147.799 163.548C147.142 164.879 146.126 165.941 144.749 166.732C143.373 167.515 141.609 167.906 139.459 167.906H132.766V164.938H139.351C140.836 164.938 142.028 164.681 142.927 164.168C143.827 163.656 144.479 162.963 144.884 162.09C145.298 161.209 145.505 160.214 145.505 159.108C145.505 158.001 145.298 157.012 144.884 156.139C144.479 155.267 143.823 154.583 142.914 154.088C142.005 153.584 140.8 153.332 139.297 153.332H133.414V178H130.067ZM154.188 178V150.364H163.526C165.686 150.364 167.458 150.732 168.843 151.47C170.229 152.199 171.254 153.202 171.92 154.479C172.586 155.757 172.919 157.21 172.919 158.838C172.919 160.466 172.586 161.91 171.92 163.17C171.254 164.429 170.233 165.419 168.857 166.138C167.48 166.849 165.722 167.205 163.58 167.205H156.024V164.182H163.472C164.948 164.182 166.135 163.966 167.035 163.534C167.944 163.102 168.6 162.491 169.005 161.699C169.419 160.898 169.626 159.945 169.626 158.838C169.626 157.732 169.419 156.764 169.005 155.937C168.591 155.109 167.93 154.47 167.021 154.021C166.113 153.562 164.912 153.332 163.419 153.332H157.535V178H154.188ZM167.197 165.585L173.998 178H170.112L163.419 165.585H167.197ZM181.842 150.364V178H178.495V150.364H181.842ZM203.665 157.273C203.503 155.905 202.847 154.844 201.695 154.088C200.544 153.332 199.131 152.955 197.458 152.955C196.234 152.955 195.164 153.152 194.246 153.548C193.338 153.944 192.627 154.488 192.114 155.181C191.61 155.874 191.358 156.661 191.358 157.543C191.358 158.28 191.534 158.915 191.885 159.445C192.245 159.967 192.703 160.403 193.261 160.754C193.819 161.096 194.404 161.379 195.015 161.604C195.627 161.82 196.189 161.996 196.702 162.131L199.509 162.886C200.229 163.075 201.029 163.336 201.911 163.669C202.802 164.002 203.652 164.456 204.461 165.032C205.28 165.599 205.955 166.327 206.486 167.218C207.016 168.109 207.282 169.202 207.282 170.497C207.282 171.991 206.89 173.34 206.108 174.545C205.334 175.751 204.201 176.709 202.707 177.42C201.223 178.13 199.419 178.486 197.296 178.486C195.317 178.486 193.603 178.166 192.155 177.528C190.715 176.889 189.582 175.998 188.754 174.856C187.935 173.713 187.472 172.386 187.364 170.875H190.819C190.909 171.919 191.26 172.782 191.871 173.466C192.492 174.141 193.275 174.644 194.219 174.977C195.173 175.301 196.198 175.463 197.296 175.463C198.573 175.463 199.72 175.256 200.737 174.842C201.754 174.42 202.559 173.835 203.153 173.088C203.746 172.332 204.043 171.451 204.043 170.443C204.043 169.526 203.787 168.779 203.274 168.203C202.761 167.627 202.086 167.16 201.25 166.8C200.413 166.44 199.509 166.125 198.537 165.855L195.137 164.884C192.978 164.263 191.269 163.377 190.009 162.225C188.75 161.074 188.12 159.567 188.12 157.705C188.12 156.157 188.538 154.808 189.375 153.656C190.22 152.496 191.354 151.596 192.775 150.957C194.206 150.31 195.803 149.986 197.566 149.986C199.347 149.986 200.93 150.305 202.316 150.944C203.701 151.574 204.799 152.437 205.608 153.535C206.427 154.632 206.859 155.878 206.904 157.273H203.665ZM212.784 178V150.364H229.463V153.332H216.131V162.67H228.599V165.639H216.131V175.031H229.679V178H212.784ZM250.609 157.273C250.447 155.905 249.79 154.844 248.638 154.088C247.487 153.332 246.075 152.955 244.401 152.955C243.178 152.955 242.107 153.152 241.19 153.548C240.281 153.944 239.57 154.488 239.058 155.181C238.554 155.874 238.302 156.661 238.302 157.543C238.302 158.28 238.477 158.915 238.828 159.445C239.188 159.967 239.647 160.403 240.205 160.754C240.762 161.096 241.347 161.379 241.959 161.604C242.571 161.82 243.133 161.996 243.646 162.131L246.452 162.886C247.172 163.075 247.973 163.336 248.854 163.669C249.745 164.002 250.595 164.456 251.405 165.032C252.223 165.599 252.898 166.327 253.429 167.218C253.96 168.109 254.225 169.202 254.225 170.497C254.225 171.991 253.834 173.34 253.051 174.545C252.277 175.751 251.144 176.709 249.651 177.42C248.166 178.13 246.362 178.486 244.239 178.486C242.26 178.486 240.546 178.166 239.098 177.528C237.659 176.889 236.525 175.998 235.697 174.856C234.879 173.713 234.415 172.386 234.308 170.875H237.762C237.852 171.919 238.203 172.782 238.815 173.466C239.435 174.141 240.218 174.644 241.163 174.977C242.116 175.301 243.142 175.463 244.239 175.463C245.517 175.463 246.664 175.256 247.68 174.842C248.697 174.42 249.502 173.835 250.096 173.088C250.69 172.332 250.987 171.451 250.987 170.443C250.987 169.526 250.73 168.779 250.217 168.203C249.705 167.627 249.03 167.16 248.193 166.8C247.357 166.44 246.452 166.125 245.481 165.855L242.08 164.884C239.921 164.263 238.212 163.377 236.952 162.225C235.693 161.074 235.063 159.567 235.063 157.705C235.063 156.157 235.482 154.808 236.318 153.656C237.164 152.496 238.297 151.596 239.719 150.957C241.149 150.31 242.746 149.986 244.509 149.986C246.29 149.986 247.874 150.305 249.259 150.944C250.645 151.574 251.742 152.437 252.552 153.535C253.371 154.632 253.802 155.878 253.847 157.273H250.609Z" fill="#7DFFF9"/>
<path d="M7.34659 178H6.34659V179H7.34659V178ZM7.34659 150.364V149.364H6.34659V150.364H7.34659ZM24.0256 150.364H25.0256V149.364H24.0256V150.364ZM24.0256 153.332V154.332H25.0256V153.332H24.0256ZM10.6932 153.332V152.332H9.69318V153.332H10.6932ZM10.6932 162.67H9.69318V163.67H10.6932V162.67ZM23.1619 162.67H24.1619V161.67H23.1619V162.67ZM23.1619 165.639V166.639H24.1619V165.639H23.1619ZM10.6932 165.639V164.639H9.69318V165.639H10.6932ZM10.6932 175.031H9.69318V176.031H10.6932V175.031ZM24.2415 175.031H25.2415V174.031H24.2415V175.031ZM24.2415 178V179H25.2415V178H24.2415ZM7.34659 178H8.34659V150.364H7.34659H6.34659V178H7.34659ZM7.34659 150.364V151.364H24.0256V150.364V149.364H7.34659V150.364ZM24.0256 150.364H23.0256V153.332H24.0256H25.0256V150.364H24.0256ZM24.0256 153.332V152.332H10.6932V153.332V154.332H24.0256V153.332ZM10.6932 153.332H9.69318V162.67H10.6932H11.6932V153.332H10.6932ZM10.6932 162.67V163.67H23.1619V162.67V161.67H10.6932V162.67ZM23.1619 162.67H22.1619V165.639H23.1619H24.1619V162.67H23.1619ZM23.1619 165.639V164.639H10.6932V165.639V166.639H23.1619V165.639ZM10.6932 165.639H9.69318V175.031H10.6932H11.6932V165.639H10.6932ZM10.6932 175.031V176.031H24.2415V175.031V174.031H10.6932V175.031ZM24.2415 175.031H23.2415V178H24.2415H25.2415V175.031H24.2415ZM24.2415 178V177H7.34659V178V179H24.2415V178ZM51.9723 150.364H52.9723V149.364H51.9723V150.364ZM51.9723 178V179H52.9723V178H51.9723ZM48.7337 178L47.9121 178.57L48.2105 179H48.7337V178ZM33.674 156.301L34.4955 155.731L34.1972 155.301H33.674V156.301ZM33.4041 156.301V155.301H32.4041V156.301H33.4041ZM33.4041 178V179H34.4041V178H33.4041ZM30.0575 178H29.0575V179H30.0575V178ZM30.0575 150.364V149.364H29.0575V150.364H30.0575ZM33.2962 150.364L34.1174 149.793L33.819 149.364H33.2962V150.364ZM48.4098 172.116L47.5886 172.687L47.8869 173.116H48.4098V172.116ZM48.6797 172.116V173.116H49.6797V172.116H48.6797ZM48.6797 150.364V149.364H47.6797V150.364H48.6797ZM51.9723 150.364H50.9723V178H51.9723H52.9723V150.364H51.9723ZM51.9723 178V177H48.7337V178V179H51.9723V178ZM48.7337 178L49.5552 177.43L34.4955 155.731L33.674 156.301L32.8525 156.871L47.9121 178.57L48.7337 178ZM33.674 156.301V155.301H33.4041V156.301V157.301H33.674V156.301ZM33.4041 156.301H32.4041V178H33.4041H34.4041V156.301H33.4041ZM33.4041 178V177H30.0575V178V179H33.4041V178ZM30.0575 178H31.0575V150.364H30.0575H29.0575V178H30.0575ZM30.0575 150.364V151.364H33.2962V150.364V149.364H30.0575V150.364ZM33.2962 150.364L32.4749 150.934L47.5886 172.687L48.4098 172.116L49.231 171.546L34.1174 149.793L33.2962 150.364ZM48.4098 172.116V173.116H48.6797V172.116V171.116H48.4098V172.116ZM48.6797 172.116H49.6797V150.364H48.6797H47.6797V172.116H48.6797ZM48.6797 150.364V151.364H51.9723V150.364V149.364H48.6797V150.364ZM57.1575 153.332H56.1575V154.332H57.1575V153.332ZM57.1575 150.364V149.364H56.1575V150.364H57.1575ZM77.8848 150.364H78.8848V149.364H77.8848V150.364ZM77.8848 153.332V154.332H78.8848V153.332H77.8848ZM69.1944 153.332V152.332H68.1944V153.332H69.1944ZM69.1944 178V179H70.1944V178H69.1944ZM65.8478 178H64.8478V179H65.8478V178ZM65.8478 153.332H66.8478V152.332H65.8478V153.332ZM57.1575 153.332H58.1575V150.364H57.1575H56.1575V153.332H57.1575ZM57.1575 150.364V151.364H77.8848V150.364V149.364H57.1575V150.364ZM77.8848 150.364H76.8848V153.332H77.8848H78.8848V150.364H77.8848ZM77.8848 153.332V152.332H69.1944V153.332V154.332H77.8848V153.332ZM69.1944 153.332H68.1944V178H69.1944H70.1944V153.332H69.1944ZM69.1944 178V177H65.8478V178V179H69.1944V178ZM65.8478 178H66.8478V153.332H65.8478H64.8478V178H65.8478ZM65.8478 153.332V152.332H57.1575V153.332V154.332H65.8478V153.332ZM83.0497 178H82.0497V179H83.0497V178ZM83.0497 150.364V149.364H82.0497V150.364H83.0497ZM99.7287 150.364H100.729V149.364H99.7287V150.364ZM99.7287 153.332V154.332H100.729V153.332H99.7287ZM86.3963 153.332V152.332H85.3963V153.332H86.3963ZM86.3963 162.67H85.3963V163.67H86.3963V162.67ZM98.8651 162.67H99.8651V161.67H98.8651V162.67ZM98.8651 165.639V166.639H99.8651V165.639H98.8651ZM86.3963 165.639V164.639H85.3963V165.639H86.3963ZM86.3963 175.031H85.3963V176.031H86.3963V175.031ZM99.9446 175.031H100.945V174.031H99.9446V175.031ZM99.9446 178V179H100.945V178H99.9446ZM83.0497 178H84.0497V150.364H83.0497H82.0497V178H83.0497ZM83.0497 150.364V151.364H99.7287V150.364V149.364H83.0497V150.364ZM99.7287 150.364H98.7287V153.332H99.7287H100.729V150.364H99.7287ZM99.7287 153.332V152.332H86.3963V153.332V154.332H99.7287V153.332ZM86.3963 153.332H85.3963V162.67H86.3963H87.3963V153.332H86.3963ZM86.3963 162.67V163.67H98.8651V162.67V161.67H86.3963V162.67ZM98.8651 162.67H97.8651V165.639H98.8651H99.8651V162.67H98.8651ZM98.8651 165.639V164.639H86.3963V165.639V166.639H98.8651V165.639ZM86.3963 165.639H85.3963V175.031H86.3963H87.3963V165.639H86.3963ZM86.3963 175.031V176.031H99.9446V175.031V174.031H86.3963V175.031ZM99.9446 175.031H98.9446V178H99.9446H100.945V175.031H99.9446ZM99.9446 178V177H83.0497V178V179H99.9446V178ZM105.761 178H104.761V179H105.761V178ZM105.761 150.364V149.364H104.761V150.364H105.761ZM120.415 151.47L119.945 152.353L119.95 152.355L120.415 151.47ZM123.492 154.479L122.605 154.942V154.942L123.492 154.479ZM123.492 163.17L122.608 162.702L123.492 163.17ZM120.429 166.138L120.888 167.027L120.892 167.025L120.429 166.138ZM107.596 167.205H106.596V168.205H107.596V167.205ZM107.596 164.182V163.182H106.596V164.182H107.596ZM118.607 163.534L118.178 162.631L118.175 162.633L118.607 163.534ZM120.577 161.699L119.689 161.24L119.687 161.244L120.577 161.699ZM118.594 154.021L118.143 154.913L118.15 154.917L118.594 154.021ZM109.107 153.332V152.332H108.107V153.332H109.107ZM109.107 178V179H110.107V178H109.107ZM118.769 165.585L119.646 165.105L119.362 164.585H118.769V165.585ZM125.57 178V179H127.258L126.447 177.52L125.57 178ZM121.684 178L120.804 178.475L121.087 179H121.684V178ZM114.991 165.585V164.585H113.316L114.111 166.06L114.991 165.585ZM105.761 178H106.761V150.364H105.761H104.761V178H105.761ZM105.761 150.364V151.364H115.099V150.364V149.364H105.761V150.364ZM115.099 150.364V151.364C117.152 151.364 118.749 151.716 119.945 152.353L120.415 151.47L120.885 150.587C119.311 149.749 117.363 149.364 115.099 149.364V150.364ZM120.415 151.47L119.95 152.355C121.172 152.998 122.042 153.86 122.605 154.942L123.492 154.479L124.379 154.017C123.611 152.543 122.43 151.4 120.881 150.585L120.415 151.47ZM123.492 154.479L122.605 154.942C123.188 156.059 123.491 157.349 123.491 158.838H124.491H125.491C125.491 157.07 125.128 155.455 124.379 154.017L123.492 154.479ZM124.491 158.838H123.491C123.491 160.327 123.187 161.606 122.608 162.702L123.492 163.17L124.376 163.637C125.128 162.214 125.491 160.606 125.491 158.838H124.491ZM123.492 163.17L122.608 162.702C122.046 163.767 121.18 164.618 119.966 165.252L120.429 166.138L120.892 167.025C122.431 166.22 123.607 165.092 124.376 163.637L123.492 163.17ZM120.429 166.138L119.97 165.25C118.779 165.865 117.192 166.205 115.153 166.205V167.205V168.205C117.396 168.205 119.326 167.834 120.888 167.027L120.429 166.138ZM115.153 167.205V166.205H107.596V167.205V168.205H115.153V167.205ZM107.596 167.205H108.596V164.182H107.596H106.596V167.205H107.596ZM107.596 164.182V165.182H115.045V164.182V163.182H107.596V164.182ZM115.045 164.182V165.182C116.604 165.182 117.956 164.956 119.04 164.436L118.607 163.534L118.175 162.633C117.459 162.976 116.436 163.182 115.045 163.182V164.182ZM118.607 163.534L119.036 164.437C120.116 163.924 120.95 163.167 121.468 162.154L120.577 161.699L119.687 161.244C119.395 161.814 118.915 162.281 118.178 162.631L118.607 163.534ZM120.577 161.699L121.466 162.158C121.968 161.187 122.198 160.069 122.198 158.838H121.198H120.198C120.198 159.821 120.015 160.61 119.689 161.24L120.577 161.699ZM121.198 158.838H122.198C122.198 157.606 121.967 156.481 121.472 155.49L120.577 155.937L119.683 156.384C120.015 157.048 120.198 157.857 120.198 158.838H121.198ZM120.577 155.937L121.472 155.49C120.951 154.448 120.121 153.661 119.037 153.124L118.594 154.021L118.15 154.917C118.883 155.28 119.376 155.77 119.683 156.384L120.577 155.937ZM118.594 154.021L119.044 153.128C117.946 152.573 116.573 152.332 114.991 152.332V153.332V154.332C116.395 154.332 117.424 154.55 118.143 154.913L118.594 154.021ZM114.991 153.332V152.332H109.107V153.332V154.332H114.991V153.332ZM109.107 153.332H108.107V178H109.107H110.107V153.332H109.107ZM109.107 178V177H105.761V178V179H109.107V178ZM118.769 165.585L117.892 166.066L124.693 178.48L125.57 178L126.447 177.52L119.646 165.105L118.769 165.585ZM125.57 178V177H121.684V178V179H125.57V178ZM121.684 178L122.564 177.525L115.871 165.111L114.991 165.585L114.111 166.06L120.804 178.475L121.684 178ZM114.991 165.585V166.585H118.769V165.585V164.585H114.991V165.585ZM130.067 178H129.067V179H130.067V178ZM130.067 150.364V149.364H129.067V150.364H130.067ZM144.722 151.538L144.228 152.407L144.235 152.411L144.722 151.538ZM147.799 154.682L146.906 155.131V155.131L147.799 154.682ZM147.799 163.548L146.904 163.1L146.902 163.105L147.799 163.548ZM144.749 166.732L145.243 167.602L145.248 167.599L144.749 166.732ZM132.766 167.906H131.766V168.906H132.766V167.906ZM132.766 164.938V163.938H131.766V164.938H132.766ZM142.927 164.168L142.432 163.3L142.927 164.168ZM144.884 162.09L143.979 161.665L143.977 161.669L144.884 162.09ZM144.884 156.139L143.977 156.56L143.981 156.568L144.884 156.139ZM142.914 154.088L142.429 154.963L142.436 154.966L142.914 154.088ZM133.414 153.332V152.332H132.414V153.332H133.414ZM133.414 178V179H134.414V178H133.414ZM130.067 178H131.067V150.364H130.067H129.067V178H130.067ZM130.067 150.364V151.364H139.405V150.364V149.364H130.067V150.364ZM139.405 150.364V151.364C141.461 151.364 143.048 151.736 144.228 152.407L144.722 151.538L145.216 150.668C143.644 149.774 141.686 149.364 139.405 149.364V150.364ZM144.722 151.538L144.235 152.411C145.459 153.094 146.336 154.001 146.906 155.131L147.799 154.682L148.692 154.232C147.93 152.718 146.756 151.528 145.21 150.665L144.722 151.538ZM147.799 154.682L146.906 155.131C147.494 156.301 147.797 157.62 147.797 159.108H148.797H149.797C149.797 157.339 149.435 155.708 148.692 154.232L147.799 154.682ZM148.797 159.108H147.797C147.797 160.596 147.494 161.92 146.904 163.1L147.799 163.548L148.693 163.995C149.435 162.512 149.797 160.877 149.797 159.108H148.797ZM147.799 163.548L146.902 163.105C146.339 164.246 145.468 165.165 144.251 165.865L144.749 166.732L145.248 167.599C146.783 166.716 147.945 165.512 148.696 163.99L147.799 163.548ZM144.749 166.732L144.255 165.863C143.073 166.535 141.496 166.906 139.459 166.906V167.906V168.906C141.723 168.906 143.672 168.495 145.243 167.602L144.749 166.732ZM139.459 167.906V166.906H132.766V167.906V168.906H139.459V167.906ZM132.766 167.906H133.766V164.938H132.766H131.766V167.906H132.766ZM132.766 164.938V165.938H139.351V164.938V163.938H132.766V164.938ZM139.351 164.938V165.938C140.939 165.938 142.321 165.665 143.423 165.037L142.927 164.168L142.432 163.3C141.735 163.697 140.733 163.938 139.351 163.938V164.938ZM142.927 164.168L143.423 165.037C144.488 164.43 145.292 163.587 145.791 162.511L144.884 162.09L143.977 161.669C143.666 162.339 143.166 162.881 142.432 163.3L142.927 164.168ZM144.884 162.09L145.789 162.515C146.274 161.484 146.505 160.341 146.505 159.108H145.505H144.505C144.505 160.088 144.322 160.934 143.979 161.665L144.884 162.09ZM145.505 159.108H146.505C146.505 157.875 146.274 156.736 145.788 155.711L144.884 156.139L143.981 156.568C144.322 157.288 144.505 158.128 144.505 159.108H145.505ZM144.884 156.139L145.791 155.718C145.289 154.636 144.474 153.799 143.392 153.21L142.914 154.088L142.436 154.966C143.171 155.367 143.669 155.897 143.977 156.56L144.884 156.139ZM142.914 154.088L143.399 153.214C142.29 152.599 140.899 152.332 139.297 152.332V153.332V154.332C140.701 154.332 141.72 154.57 142.429 154.963L142.914 154.088ZM139.297 153.332V152.332H133.414V153.332V154.332H139.297V153.332ZM133.414 153.332H132.414V178H133.414H134.414V153.332H133.414ZM133.414 178V177H130.067V178V179H133.414V178ZM154.188 178H153.188V179H154.188V178ZM154.188 150.364V149.364H153.188V150.364H154.188ZM168.843 151.47L168.373 152.353L168.378 152.355L168.843 151.47ZM171.92 154.479L171.033 154.942V154.942L171.92 154.479ZM171.92 163.17L171.036 162.702L171.92 163.17ZM168.857 166.138L169.316 167.027L169.32 167.025L168.857 166.138ZM156.024 167.205H155.024V168.205H156.024V167.205ZM156.024 164.182V163.182H155.024V164.182H156.024ZM167.035 163.534L166.606 162.631L166.602 162.633L167.035 163.534ZM169.005 161.699L168.117 161.24L168.115 161.244L169.005 161.699ZM167.021 154.021L166.571 154.913L166.578 154.917L167.021 154.021ZM157.535 153.332V152.332H156.535V153.332H157.535ZM157.535 178V179H158.535V178H157.535ZM167.197 165.585L168.074 165.105L167.789 164.585H167.197V165.585ZM173.998 178V179H175.686L174.875 177.52L173.998 178ZM170.112 178L169.231 178.475L169.515 179H170.112V178ZM163.419 165.585V164.585H161.743L162.538 166.06L163.419 165.585ZM154.188 178H155.188V150.364H154.188H153.188V178H154.188ZM154.188 150.364V151.364H163.526V150.364V149.364H154.188V150.364ZM163.526 150.364V151.364C165.58 151.364 167.177 151.716 168.373 152.353L168.843 151.47L169.313 150.587C167.739 149.749 165.791 149.364 163.526 149.364V150.364ZM168.843 151.47L168.378 152.355C169.599 152.998 170.47 153.86 171.033 154.942L171.92 154.479L172.807 154.017C172.039 152.543 170.858 151.4 169.309 150.585L168.843 151.47ZM171.92 154.479L171.033 154.942C171.615 156.059 171.919 157.349 171.919 158.838H172.919H173.919C173.919 157.07 173.556 155.455 172.807 154.017L171.92 154.479ZM172.919 158.838H171.919C171.919 160.327 171.615 161.606 171.036 162.702L171.92 163.17L172.804 163.637C173.556 162.214 173.919 160.606 173.919 158.838H172.919ZM171.92 163.17L171.036 162.702C170.473 163.767 169.607 164.618 168.393 165.252L168.857 166.138L169.32 167.025C170.859 166.22 172.035 165.092 172.804 163.637L171.92 163.17ZM168.857 166.138L168.398 165.25C167.207 165.865 165.62 166.205 163.58 166.205V167.205V168.205C165.823 168.205 167.754 167.834 169.316 167.027L168.857 166.138ZM163.58 167.205V166.205H156.024V167.205V168.205H163.58V167.205ZM156.024 167.205H157.024V164.182H156.024H155.024V167.205H156.024ZM156.024 164.182V165.182H163.472V164.182V163.182H156.024V164.182ZM163.472 164.182V165.182C165.032 165.182 166.384 164.956 167.468 164.436L167.035 163.534L166.602 162.633C165.887 162.976 164.864 163.182 163.472 163.182V164.182ZM167.035 163.534L167.464 164.437C168.544 163.924 169.377 163.167 169.895 162.154L169.005 161.699L168.115 161.244C167.823 161.814 167.343 162.281 166.606 162.631L167.035 163.534ZM169.005 161.699L169.894 162.158C170.396 161.187 170.626 160.069 170.626 158.838H169.626H168.626C168.626 159.821 168.442 160.61 168.117 161.24L169.005 161.699ZM169.626 158.838H170.626C170.626 157.606 170.395 156.481 169.9 155.49L169.005 155.937L168.111 156.384C168.443 157.048 168.626 157.857 168.626 158.838H169.626ZM169.005 155.937L169.9 155.49C169.379 154.448 168.549 153.661 167.465 153.124L167.021 154.021L166.578 154.917C167.311 155.28 167.804 155.77 168.111 156.384L169.005 155.937ZM167.021 154.021L167.472 153.128C166.374 152.573 165.001 152.332 163.419 152.332V153.332V154.332C164.823 154.332 165.852 154.55 166.571 154.913L167.021 154.021ZM163.419 153.332V152.332H157.535V153.332V154.332H163.419V153.332ZM157.535 153.332H156.535V178H157.535H158.535V153.332H157.535ZM157.535 178V177H154.188V178V179H157.535V178ZM167.197 165.585L166.32 166.066L173.121 178.48L173.998 178L174.875 177.52L168.074 165.105L167.197 165.585ZM173.998 178V177H170.112V178V179H173.998V178ZM170.112 178L170.992 177.525L164.299 165.111L163.419 165.585L162.538 166.06L169.231 178.475L170.112 178ZM163.419 165.585V166.585H167.197V165.585V164.585H163.419V165.585ZM181.842 150.364H182.842V149.364H181.842V150.364ZM181.842 178V179H182.842V178H181.842ZM178.495 178H177.495V179H178.495V178ZM178.495 150.364V149.364H177.495V150.364H178.495ZM181.842 150.364H180.842V178H181.842H182.842V150.364H181.842ZM181.842 178V177H178.495V178V179H181.842V178ZM178.495 178H179.495V150.364H178.495H177.495V178H178.495ZM178.495 150.364V151.364H181.842V150.364V149.364H178.495V150.364ZM203.665 157.273L202.672 157.39L202.777 158.273H203.665V157.273ZM201.695 154.088L201.146 154.924L201.695 154.088ZM194.246 153.548L193.85 152.63L193.847 152.632L194.246 153.548ZM192.114 155.181L191.31 154.586L191.305 154.593L192.114 155.181ZM191.885 159.445L191.051 159.997L191.056 160.005L191.062 160.013L191.885 159.445ZM193.261 160.754L192.729 161.601L192.739 161.607L193.261 160.754ZM195.015 161.604L194.67 162.543L194.683 162.547L195.015 161.604ZM196.702 162.131L196.962 161.165L196.957 161.164L196.702 162.131ZM199.509 162.886L199.249 163.852L199.255 163.854L199.509 162.886ZM201.911 163.669L201.558 164.605L201.561 164.606L201.911 163.669ZM204.461 165.032L203.882 165.847L203.892 165.854L204.461 165.032ZM206.486 167.218L207.345 166.706V166.706L206.486 167.218ZM206.108 174.545L205.269 174.001L205.266 174.005L206.108 174.545ZM202.707 177.42L202.277 176.517L202.275 176.518L202.707 177.42ZM192.155 177.528L191.749 178.442L191.751 178.443L192.155 177.528ZM188.754 174.856L187.941 175.438L187.944 175.442L188.754 174.856ZM187.364 170.875V169.875H186.29L186.367 170.946L187.364 170.875ZM190.819 170.875L191.815 170.789L191.736 169.875H190.819V170.875ZM191.871 173.466L191.126 174.133L191.135 174.143L191.871 173.466ZM194.219 174.977L193.887 175.92L193.898 175.924L194.219 174.977ZM200.737 174.842L201.114 175.769L201.121 175.766L200.737 174.842ZM203.153 173.088L203.935 173.71L203.939 173.706L203.153 173.088ZM203.274 168.203L204.021 167.538L203.274 168.203ZM201.25 166.8L200.855 167.718L201.25 166.8ZM198.537 165.855L198.263 166.817L198.27 166.819L198.537 165.855ZM195.137 164.884L194.861 165.845L194.862 165.845L195.137 164.884ZM190.009 162.225L189.334 162.963L190.009 162.225ZM189.375 153.656L188.567 153.067L188.566 153.068L189.375 153.656ZM192.775 150.957L193.185 151.87L193.188 151.868L192.775 150.957ZM202.316 150.944L201.897 151.852L201.902 151.854L202.316 150.944ZM205.608 153.535L204.804 154.128L204.807 154.133L205.608 153.535ZM206.904 157.273V158.273H207.937L207.903 157.24L206.904 157.273ZM203.665 157.273L204.658 157.155C204.462 155.494 203.642 154.17 202.244 153.252L201.695 154.088L201.146 154.924C202.051 155.518 202.545 156.316 202.672 157.39L203.665 157.273ZM201.695 154.088L202.244 153.252C200.897 152.368 199.284 151.955 197.458 151.955V152.955V153.955C198.979 153.955 200.19 154.296 201.146 154.924L201.695 154.088ZM197.458 152.955V151.955C196.128 151.955 194.918 152.17 193.85 152.63L194.246 153.548L194.642 154.467C195.41 154.135 196.341 153.955 197.458 153.955V152.955ZM194.246 153.548L193.847 152.632C192.802 153.087 191.942 153.733 191.31 154.586L192.114 155.181L192.918 155.776C193.312 155.244 193.873 154.802 194.646 154.465L194.246 153.548ZM192.114 155.181L191.305 154.593C190.673 155.462 190.358 156.456 190.358 157.543H191.358H192.358C192.358 156.866 192.547 156.286 192.923 155.769L192.114 155.181ZM191.358 157.543H190.358C190.358 158.444 190.575 159.278 191.051 159.997L191.885 159.445L192.719 158.894C192.493 158.552 192.358 158.116 192.358 157.543H191.358ZM191.885 159.445L191.062 160.013C191.501 160.651 192.061 161.181 192.729 161.601L193.261 160.754L193.794 159.908C193.346 159.626 192.988 159.283 192.708 158.878L191.885 159.445ZM193.261 160.754L192.739 161.607C193.352 161.983 193.997 162.295 194.67 162.543L195.015 161.604L195.361 160.666C194.811 160.464 194.286 160.209 193.784 159.902L193.261 160.754ZM195.015 161.604L194.683 162.547C195.315 162.77 195.903 162.955 196.448 163.098L196.702 162.131L196.957 161.164C196.475 161.037 195.94 160.87 195.348 160.661L195.015 161.604ZM196.702 162.131L196.442 163.096L199.249 163.852L199.509 162.886L199.769 161.921L196.962 161.165L196.702 162.131ZM199.509 162.886L199.255 163.854C199.934 164.032 200.701 164.281 201.558 164.605L201.911 163.669L202.264 162.733C201.358 162.391 200.524 162.119 199.763 161.919L199.509 162.886ZM201.911 163.669L201.561 164.606C202.367 164.907 203.14 165.319 203.882 165.847L204.461 165.032L205.041 164.217C204.164 163.593 203.237 163.097 202.261 162.732L201.911 163.669ZM204.461 165.032L203.892 165.854C204.588 166.336 205.166 166.957 205.627 167.73L206.486 167.218L207.345 166.706C206.744 165.698 205.972 164.861 205.031 164.21L204.461 165.032ZM206.486 167.218L205.627 167.73C206.045 168.432 206.282 169.337 206.282 170.497H207.282H208.282C208.282 169.066 207.988 167.786 207.345 166.706L206.486 167.218ZM207.282 170.497H206.282C206.282 171.805 205.942 172.964 205.269 174.001L206.108 174.545L206.947 175.09C207.839 173.716 208.282 172.176 208.282 170.497H207.282ZM206.108 174.545L205.266 174.005C204.608 175.031 203.629 175.874 202.277 176.517L202.707 177.42L203.137 178.323C204.772 177.544 206.06 176.471 206.949 175.086L206.108 174.545ZM202.707 177.42L202.275 176.518C200.959 177.148 199.311 177.486 197.296 177.486V178.486V179.486C199.527 179.486 201.487 179.113 203.139 178.322L202.707 177.42ZM197.296 178.486V177.486C195.422 177.486 193.852 177.183 192.558 176.613L192.155 177.528L191.751 178.443C193.354 179.15 195.212 179.486 197.296 179.486V178.486ZM192.155 177.528L192.56 176.614C191.263 176.038 190.276 175.253 189.564 174.269L188.754 174.856L187.944 175.442C188.887 176.744 190.168 177.74 191.749 178.442L192.155 177.528ZM188.754 174.856L189.567 174.273C188.864 173.293 188.457 172.146 188.362 170.804L187.364 170.875L186.367 170.946C186.487 172.627 187.007 174.134 187.941 175.438L188.754 174.856ZM187.364 170.875V171.875H190.819V170.875V169.875H187.364V170.875ZM190.819 170.875L189.822 170.961C189.928 172.188 190.35 173.265 191.126 174.133L191.871 173.466L192.617 172.799C192.169 172.299 191.889 171.649 191.815 170.789L190.819 170.875ZM191.871 173.466L191.135 174.143C191.877 174.949 192.803 175.538 193.887 175.92L194.219 174.977L194.552 174.034C193.747 173.75 193.107 173.332 192.607 172.789L191.871 173.466ZM194.219 174.977L193.898 175.924C194.964 176.286 196.099 176.463 197.296 176.463V175.463V174.463C196.298 174.463 195.382 174.316 194.541 174.03L194.219 174.977ZM197.296 175.463V176.463C198.682 176.463 199.96 176.238 201.114 175.769L200.737 174.842L200.36 173.916C199.481 174.274 198.465 174.463 197.296 174.463V175.463ZM200.737 174.842L201.121 175.766C202.27 175.288 203.221 174.609 203.935 173.71L203.153 173.088L202.37 172.466C201.897 173.061 201.238 173.551 200.353 173.919L200.737 174.842ZM203.153 173.088L203.939 173.706C204.678 172.765 205.043 171.663 205.043 170.443H204.043H203.043C203.043 171.238 202.814 171.9 202.366 172.47L203.153 173.088ZM204.043 170.443H205.043C205.043 169.33 204.727 168.331 204.021 167.538L203.274 168.203L202.527 168.868C202.847 169.227 203.043 169.722 203.043 170.443H204.043ZM203.274 168.203L204.021 167.538C203.395 166.835 202.592 166.288 201.645 165.881L201.25 166.8L200.855 167.718C201.581 168.031 202.128 168.42 202.527 168.868L203.274 168.203ZM201.25 166.8L201.645 165.881C200.763 165.502 199.816 165.172 198.805 164.892L198.537 165.855L198.27 166.819C199.203 167.078 200.064 167.378 200.855 167.718L201.25 166.8ZM198.537 165.855L198.812 164.894L195.412 163.922L195.137 164.884L194.862 165.845L198.263 166.817L198.537 165.855ZM195.137 164.884L195.413 163.922C193.357 163.331 191.799 162.507 190.684 161.487L190.009 162.225L189.334 162.963C190.738 164.246 192.598 165.194 194.861 165.845L195.137 164.884ZM190.009 162.225L190.684 161.487C189.652 160.544 189.12 159.315 189.12 157.705H188.12H187.12C187.12 159.819 187.847 161.604 189.334 162.963L190.009 162.225ZM188.12 157.705H189.12C189.12 156.349 189.482 155.21 190.184 154.244L189.375 153.656L188.566 153.068C187.594 154.406 187.12 155.965 187.12 157.705H188.12ZM189.375 153.656L190.183 154.245C190.918 153.237 191.909 152.443 193.185 151.87L192.775 150.957L192.366 150.045C190.799 150.749 189.523 151.754 188.567 153.067L189.375 153.656ZM192.775 150.957L193.188 151.868C194.474 151.286 195.927 150.986 197.566 150.986V149.986V148.986C195.678 148.986 193.938 149.333 192.363 150.046L192.775 150.957ZM197.566 149.986V150.986C199.227 150.986 200.663 151.283 201.897 151.852L202.316 150.944L202.735 150.036C201.198 149.327 199.468 148.986 197.566 148.986V149.986ZM202.316 150.944L201.902 151.854C203.151 152.422 204.107 153.183 204.804 154.128L205.608 153.535L206.413 152.941C205.491 151.691 204.252 150.725 202.73 150.034L202.316 150.944ZM205.608 153.535L204.807 154.133C205.501 155.063 205.866 156.111 205.904 157.305L206.904 157.273L207.903 157.24C207.852 155.646 207.353 154.202 206.41 152.937L205.608 153.535ZM206.904 157.273V156.273H203.665V157.273V158.273H206.904V157.273ZM212.784 178H211.784V179H212.784V178ZM212.784 150.364V149.364H211.784V150.364H212.784ZM229.463 150.364H230.463V149.364H229.463V150.364ZM229.463 153.332V154.332H230.463V153.332H229.463ZM216.131 153.332V152.332H215.131V153.332H216.131ZM216.131 162.67H215.131V163.67H216.131V162.67ZM228.599 162.67H229.599V161.67H228.599V162.67ZM228.599 165.639V166.639H229.599V165.639H228.599ZM216.131 165.639V164.639H215.131V165.639H216.131ZM216.131 175.031H215.131V176.031H216.131V175.031ZM229.679 175.031H230.679V174.031H229.679V175.031ZM229.679 178V179H230.679V178H229.679ZM212.784 178H213.784V150.364H212.784H211.784V178H212.784ZM212.784 150.364V151.364H229.463V150.364V149.364H212.784V150.364ZM229.463 150.364H228.463V153.332H229.463H230.463V150.364H229.463ZM229.463 153.332V152.332H216.131V153.332V154.332H229.463V153.332ZM216.131 153.332H215.131V162.67H216.131H217.131V153.332H216.131ZM216.131 162.67V163.67H228.599V162.67V161.67H216.131V162.67ZM228.599 162.67H227.599V165.639H228.599H229.599V162.67H228.599ZM228.599 165.639V164.639H216.131V165.639V166.639H228.599V165.639ZM216.131 165.639H215.131V175.031H216.131H217.131V165.639H216.131ZM216.131 175.031V176.031H229.679V175.031V174.031H216.131V175.031ZM229.679 175.031H228.679V178H229.679H230.679V175.031H229.679ZM229.679 178V177H212.784V178V179H229.679V178ZM250.609 157.273L249.616 157.39L249.72 158.273H250.609V157.273ZM248.638 154.088L248.09 154.924L248.638 154.088ZM241.19 153.548L240.794 152.63L240.79 152.632L241.19 153.548ZM239.058 155.181L238.254 154.586L238.249 154.593L239.058 155.181ZM238.828 159.445L237.994 159.997L237.999 160.005L238.005 160.013L238.828 159.445ZM240.205 160.754L239.672 161.601L239.682 161.607L240.205 160.754ZM241.959 161.604L241.614 162.543L241.626 162.547L241.959 161.604ZM243.646 162.131L243.906 161.165L243.9 161.164L243.646 162.131ZM246.452 162.886L246.192 163.852L246.199 163.854L246.452 162.886ZM248.854 163.669L248.501 164.605L248.504 164.606L248.854 163.669ZM251.405 165.032L250.825 165.847L250.836 165.854L251.405 165.032ZM253.429 167.218L254.288 166.706V166.706L253.429 167.218ZM253.051 174.545L252.212 174.001L252.21 174.005L253.051 174.545ZM249.651 177.42L249.221 176.517L249.219 176.518L249.651 177.42ZM239.098 177.528L238.692 178.442L238.695 178.443L239.098 177.528ZM235.697 174.856L234.885 175.438L234.888 175.442L235.697 174.856ZM234.308 170.875V169.875H233.234L233.31 170.946L234.308 170.875ZM237.762 170.875L238.758 170.789L238.68 169.875H237.762V170.875ZM238.815 173.466L238.069 174.133L238.079 174.143L238.815 173.466ZM241.163 174.977L240.83 175.92L240.841 175.924L241.163 174.977ZM247.68 174.842L248.057 175.769L248.064 175.766L247.68 174.842ZM250.096 173.088L250.879 173.71L250.882 173.706L250.096 173.088ZM250.217 168.203L250.964 167.538L250.217 168.203ZM248.193 166.8L247.798 167.718L248.193 166.8ZM245.481 165.855L245.206 166.817L245.213 166.819L245.481 165.855ZM242.08 164.884L241.804 165.845L241.806 165.845L242.08 164.884ZM236.952 162.225L236.278 162.963L236.952 162.225ZM236.318 153.656L235.51 153.067L235.509 153.068L236.318 153.656ZM239.719 150.957L240.129 151.87L240.131 151.868L239.719 150.957ZM249.259 150.944L248.841 151.852L248.845 151.854L249.259 150.944ZM252.552 153.535L251.747 154.128L251.75 154.133L252.552 153.535ZM253.847 157.273V158.273H254.88L254.847 157.24L253.847 157.273ZM250.609 157.273L251.602 157.155C251.405 155.494 250.586 154.17 249.187 153.252L248.638 154.088L248.09 154.924C248.994 155.518 249.488 156.316 249.616 157.39L250.609 157.273ZM248.638 154.088L249.187 153.252C247.841 152.368 246.227 151.955 244.401 151.955V152.955V153.955C245.922 153.955 247.133 154.296 248.09 154.924L248.638 154.088ZM244.401 152.955V151.955C243.071 151.955 241.861 152.17 240.794 152.63L241.19 153.548L241.586 154.467C242.354 154.135 243.284 153.955 244.401 153.955V152.955ZM241.19 153.548L240.79 152.632C239.745 153.087 238.886 153.733 238.254 154.586L239.058 155.181L239.861 155.776C240.255 155.244 240.817 154.802 241.589 154.465L241.19 153.548ZM239.058 155.181L238.249 154.593C237.617 155.462 237.302 156.456 237.302 157.543H238.302H239.302C239.302 156.866 239.491 156.286 239.866 155.769L239.058 155.181ZM238.302 157.543H237.302C237.302 158.444 237.519 159.278 237.994 159.997L238.828 159.445L239.662 158.894C239.436 158.552 239.302 158.116 239.302 157.543H238.302ZM238.828 159.445L238.005 160.013C238.445 160.651 239.004 161.181 239.672 161.601L240.205 160.754L240.737 159.908C240.289 159.626 239.931 159.283 239.651 158.878L238.828 159.445ZM240.205 160.754L239.682 161.607C240.296 161.983 240.94 162.295 241.614 162.543L241.959 161.604L242.304 160.666C241.754 160.464 241.229 160.209 240.727 159.902L240.205 160.754ZM241.959 161.604L241.626 162.547C242.258 162.77 242.847 162.955 243.391 163.098L243.646 162.131L243.9 161.164C243.419 161.037 242.883 160.87 242.292 160.661L241.959 161.604ZM243.646 162.131L243.386 163.096L246.192 163.852L246.452 162.886L246.712 161.921L243.906 161.165L243.646 162.131ZM246.452 162.886L246.199 163.854C246.877 164.032 247.644 164.281 248.501 164.605L248.854 163.669L249.208 162.733C248.302 162.391 247.467 162.119 246.706 161.919L246.452 162.886ZM248.854 163.669L248.504 164.606C249.31 164.907 250.083 165.319 250.825 165.847L251.405 165.032L251.984 164.217C251.107 163.593 250.18 163.097 249.204 162.732L248.854 163.669ZM251.405 165.032L250.836 165.854C251.532 166.336 252.109 166.957 252.57 167.73L253.429 167.218L254.288 166.706C253.687 165.698 252.915 164.861 251.974 164.21L251.405 165.032ZM253.429 167.218L252.57 167.73C252.988 168.432 253.225 169.337 253.225 170.497H254.225H255.225C255.225 169.066 254.931 167.786 254.288 166.706L253.429 167.218ZM254.225 170.497H253.225C253.225 171.805 252.886 172.964 252.212 174.001L253.051 174.545L253.89 175.09C254.782 173.716 255.225 172.176 255.225 170.497H254.225ZM253.051 174.545L252.21 174.005C251.551 175.031 250.572 175.874 249.221 176.517L249.651 177.42L250.08 178.323C251.716 177.544 253.004 176.471 253.893 175.086L253.051 174.545ZM249.651 177.42L249.219 176.518C247.902 177.148 246.255 177.486 244.239 177.486V178.486V179.486C246.47 179.486 248.43 179.113 250.082 178.322L249.651 177.42ZM244.239 178.486V177.486C242.365 177.486 240.795 177.183 239.502 176.613L239.098 177.528L238.695 178.443C240.298 179.15 242.155 179.486 244.239 179.486V178.486ZM239.098 177.528L239.504 176.614C238.206 176.038 237.22 175.253 236.507 174.269L235.697 174.856L234.888 175.442C235.83 176.744 237.111 177.74 238.692 178.442L239.098 177.528ZM235.697 174.856L236.51 174.273C235.808 173.293 235.401 172.146 235.305 170.804L234.308 170.875L233.31 170.946C233.43 172.627 233.95 174.134 234.885 175.438L235.697 174.856ZM234.308 170.875V171.875H237.762V170.875V169.875H234.308V170.875ZM237.762 170.875L236.766 170.961C236.872 172.188 237.293 173.265 238.069 174.133L238.815 173.466L239.56 172.799C239.112 172.299 238.833 171.649 238.758 170.789L237.762 170.875ZM238.815 173.466L238.079 174.143C238.82 174.949 239.746 175.538 240.83 175.92L241.163 174.977L241.495 174.034C240.69 173.75 240.051 173.332 239.551 172.789L238.815 173.466ZM241.163 174.977L240.841 175.924C241.907 176.286 243.042 176.463 244.239 176.463V175.463V174.463C243.241 174.463 242.325 174.316 241.484 174.03L241.163 174.977ZM244.239 175.463V176.463C245.625 176.463 246.903 176.238 248.057 175.769L247.68 174.842L247.303 173.916C246.424 174.274 245.408 174.463 244.239 174.463V175.463ZM247.68 174.842L248.064 175.766C249.213 175.288 250.164 174.609 250.879 173.71L250.096 173.088L249.313 172.466C248.84 173.061 248.181 173.551 247.296 173.919L247.68 174.842ZM250.096 173.088L250.882 173.706C251.621 172.765 251.987 171.663 251.987 170.443H250.987H249.987C249.987 171.238 249.758 171.9 249.31 172.47L250.096 173.088ZM250.987 170.443H251.987C251.987 169.33 251.67 168.331 250.964 167.538L250.217 168.203L249.471 168.868C249.79 169.227 249.987 169.722 249.987 170.443H250.987ZM250.217 168.203L250.964 167.538C250.338 166.835 249.535 166.288 248.588 165.881L248.193 166.8L247.798 167.718C248.524 168.031 249.071 168.42 249.471 168.868L250.217 168.203ZM248.193 166.8L248.588 165.881C247.706 165.502 246.759 165.172 245.748 164.892L245.481 165.855L245.213 166.819C246.146 167.078 247.007 167.378 247.798 167.718L248.193 166.8ZM245.481 165.855L245.756 164.894L242.355 163.922L242.08 164.884L241.806 165.845L245.206 166.817L245.481 165.855ZM242.08 164.884L242.357 163.922C240.301 163.331 238.743 162.507 237.627 161.487L236.952 162.225L236.278 162.963C237.681 164.246 239.542 165.194 241.804 165.845L242.08 164.884ZM236.952 162.225L237.627 161.487C236.595 160.544 236.063 159.315 236.063 157.705H235.063H234.063C234.063 159.819 234.791 161.604 236.278 162.963L236.952 162.225ZM235.063 157.705H236.063C236.063 156.349 236.426 155.21 237.127 154.244L236.318 153.656L235.509 153.068C234.537 154.406 234.063 155.965 234.063 157.705H235.063ZM236.318 153.656L237.126 154.245C237.861 153.237 238.852 152.443 240.129 151.87L239.719 150.957L239.309 150.045C237.743 150.749 236.467 151.754 235.51 153.067L236.318 153.656ZM239.719 150.957L240.131 151.868C241.417 151.286 242.871 150.986 244.509 150.986V149.986V148.986C242.621 148.986 240.881 149.333 239.306 150.046L239.719 150.957ZM244.509 149.986V150.986C246.17 150.986 247.607 151.283 248.841 151.852L249.259 150.944L249.678 150.036C248.141 149.327 246.411 148.986 244.509 148.986V149.986ZM249.259 150.944L248.845 151.854C250.094 152.422 251.05 153.183 251.747 154.128L252.552 153.535L253.357 152.941C252.434 151.691 251.195 150.725 249.673 150.034L249.259 150.944ZM252.552 153.535L251.75 154.133C252.444 155.063 252.809 156.111 252.848 157.305L253.847 157.273L254.847 157.24C254.795 155.646 254.297 154.202 253.353 152.937L252.552 153.535ZM253.847 157.273V156.273H250.609V157.273V158.273H253.847V157.273Z" fill="black" fill-opacity="0.5" mask="url(#path-3-outside-1_26_2)"/>
</svg>
